<svg xmlns="http://www.w3.org/2000/svg" width="1440" viewBox="0 0 1440 810" height="810" version="1.0"><defs><clipPath id="a"><path d="M 0 581.914062 L 1036.132812 581.914062 L 1036.132812 810 L 0 810 Z M 0 581.914062"/></clipPath><clipPath id="b"><path d="M 565.191406 544.246094 L 1440 544.246094 L 1440 810 L 565.191406 810 Z M 565.191406 544.246094"/></clipPath><clipPath id="c"><path d="M 1093.640625 164.824219 L 1440 164.824219 L 1440 618.574219 L 1093.640625 618.574219 Z M 1093.640625 164.824219"/></clipPath><clipPath id="d"><path d="M 919.328125 209.109375 L 1218.578125 209.109375 L 1218.578125 600.609375 L 919.328125 600.609375 Z M 919.328125 209.109375"/></clipPath><clipPath id="e"><path d="M 706.949219 113.5 L 1092.449219 113.5 L 1092.449219 618.25 L 706.949219 618.25 Z M 706.949219 113.5"/></clipPath><clipPath id="f"><path d="M 442 340.25 L 620.339844 340.25 L 620.339844 661 L 442 661 Z M 442 340.25"/></clipPath><clipPath id="g"><path d="M 309 378.332031 L 492 378.332031 L 492 664.179688 L 309 664.179688 Z M 309 378.332031"/></clipPath></defs><path fill="#FFF" d="M-144 -81H1584V891H-144z"/><path fill="#FFF" d="M-144 -81H1584V891H-144z"/><path fill="#FFF2F6" d="M-144 -81H1584V891H-144z"/><g clip-path="url(#a)"><path fill="#FCC0CB" d="M 469.882812 581.917969 C 158.445312 581.917969 -96.367188 785.769531 -96.367188 1034.914062 C -96.367188 1284.0625 158.445312 1487.914062 469.882812 1487.914062 C 781.320312 1487.914062 1036.132812 1284.0625 1036.132812 1034.914062 C 1036.132812 785.769531 781.320312 581.917969 469.882812 581.917969 Z M 469.882812 581.917969"/></g><g clip-path="url(#b)"><path fill="#FCCFD7" d="M 1131.441406 544.25 C 820.003906 544.25 565.191406 748.097656 565.191406 997.246094 C 565.191406 1246.394531 820.003906 1450.242188 1131.441406 1450.242188 C 1442.878906 1450.242188 1697.691406 1246.394531 1697.691406 997.246094 C 1697.691406 748.097656 1442.878906 544.25 1131.441406 544.25 Z M 1131.441406 544.25"/></g><g clip-path="url(#c)"><path fill="#FCC0CB" d="M 1321.285156 313.691406 C 1321.621094 313.738281 1321.949219 313.800781 1322.289062 313.832031 C 1323.988281 317.171875 1326.421875 320.074219 1329.359375 322.34375 C 1329.015625 323.660156 1328.824219 325.039062 1328.824219 326.464844 C 1328.824219 329.171875 1329.5 331.714844 1330.683594 333.953125 C 1316.191406 338.097656 1305.492188 346.566406 1305.492188 346.566406 C 1311.980469 335.820312 1317.164062 324.742188 1321.285156 313.691406 Z M 1264.707031 343.875 C 1264.226562 328.511719 1262.34375 304.769531 1260.410156 283.15625 C 1261.433594 282.289062 1262.355469 281.296875 1263.117188 280.183594 C 1265.855469 283.1875 1269.777344 285.085938 1274.160156 285.085938 C 1279.480469 285.085938 1284.140625 282.292969 1286.789062 278.101562 C 1287.988281 278.414062 1289.242188 278.597656 1290.546875 278.597656 C 1293.753906 278.597656 1296.722656 277.574219 1299.15625 275.855469 C 1300.03125 276.65625 1300.972656 277.382812 1301.972656 278.03125 C 1300.40625 281.300781 1299.527344 284.96875 1299.527344 288.835938 C 1299.527344 295.835938 1302.402344 302.140625 1307.019531 306.691406 C 1287.859375 350.441406 1265.832031 380.023438 1264.707031 343.875 Z M 1217.820312 348.59375 C 1210.25 347.90625 1199.800781 343 1189.117188 336.675781 C 1189.378906 336.300781 1189.636719 335.925781 1189.882812 335.542969 C 1191.722656 336.019531 1193.648438 336.300781 1195.640625 336.300781 C 1204.300781 336.300781 1211.839844 331.480469 1215.726562 324.386719 C 1219.445312 320.316406 1221.722656 314.914062 1221.722656 308.972656 C 1221.722656 306.476562 1221.324219 304.066406 1220.582031 301.816406 C 1226.320312 300.023438 1231.175781 296.226562 1234.328125 291.238281 C 1236.339844 291.765625 1238.453125 292.074219 1240.640625 292.074219 C 1244.765625 292.074219 1248.652344 291.058594 1252.085938 289.292969 C 1241.550781 326.949219 1217.820312 348.59375 1217.820312 348.59375 Z M 1433.488281 300.890625 C 1437.5625 296.425781 1440.070312 290.503906 1440.070312 283.980469 C 1440.070312 272.949219 1432.953125 263.601562 1423.0625 260.230469 C 1423.089844 259.773438 1423.128906 259.324219 1423.128906 258.863281 C 1423.128906 245 1411.890625 233.75 1398.019531 233.75 C 1396.628906 233.75 1395.269531 233.867188 1393.941406 234.085938 C 1391.402344 229.035156 1386.945312 225.105469 1381.53125 223.257812 C 1381.546875 222.863281 1381.585938 222.476562 1381.585938 222.074219 C 1381.585938 214.390625 1377.582031 207.652344 1371.554688 203.789062 C 1371.667969 203.613281 1371.785156 203.441406 1371.886719 203.253906 C 1374.214844 200.699219 1375.648438 197.316406 1375.648438 193.585938 C 1375.648438 187.277344 1371.578125 181.933594 1365.925781 180.007812 C 1365.933594 179.742188 1365.960938 179.492188 1365.960938 179.226562 C 1365.960938 171.300781 1359.53125 164.867188 1351.605469 164.867188 C 1347.277344 164.867188 1343.402344 166.789062 1340.769531 169.816406 C 1339.636719 169.535156 1338.464844 169.367188 1337.246094 169.367188 C 1335.855469 169.367188 1334.515625 169.574219 1333.246094 169.945312 C 1330.640625 167.339844 1327.058594 165.730469 1323.089844 165.730469 C 1317.671875 165.730469 1312.980469 168.734375 1310.539062 173.160156 C 1308.808594 175.046875 1307.582031 177.386719 1307.050781 179.992188 C 1303.925781 181.042969 1301.285156 183.140625 1299.542969 185.871094 C 1295.648438 180.613281 1289.414062 177.183594 1282.367188 177.183594 C 1275.925781 177.183594 1270.160156 180.050781 1266.242188 184.5625 C 1264.558594 184.132812 1262.804688 183.886719 1260.988281 183.886719 C 1258.921875 183.886719 1256.925781 184.195312 1255.035156 184.738281 C 1251.164062 180.871094 1245.820312 178.476562 1239.914062 178.476562 C 1231.851562 178.476562 1224.859375 182.945312 1221.230469 189.535156 C 1218.648438 192.339844 1216.824219 195.828125 1216.035156 199.707031 C 1210.945312 201.429688 1206.710938 205.003906 1204.152344 209.636719 C 1201.546875 212.476562 1199.695312 216.023438 1198.921875 219.960938 C 1197.613281 220.128906 1196.332031 220.390625 1195.09375 220.75 C 1190.546875 216.199219 1184.269531 213.386719 1177.332031 213.386719 C 1167.867188 213.386719 1159.65625 218.636719 1155.382812 226.378906 C 1152.359375 229.671875 1150.210938 233.773438 1149.28125 238.328125 C 1143.304688 240.347656 1138.335938 244.542969 1135.332031 249.988281 C 1131.320312 254.359375 1128.839844 260.132812 1128.722656 266.5 C 1124.121094 268.527344 1120.320312 272.023438 1117.90625 276.398438 C 1115.148438 279.402344 1113.183594 283.136719 1112.339844 287.292969 C 1106.890625 289.136719 1102.359375 292.964844 1099.621094 297.929688 C 1095.871094 302.003906 1093.578125 307.429688 1093.578125 313.398438 C 1093.578125 325.324219 1102.6875 335.113281 1114.332031 336.191406 C 1118.113281 343.617188 1125.816406 348.714844 1134.722656 348.714844 C 1142.574219 348.714844 1149.496094 344.757812 1153.625 338.726562 C 1157.808594 343.328125 1163.828125 346.234375 1170.535156 346.234375 C 1171.101562 346.234375 1171.660156 346.207031 1172.214844 346.167969 C 1210.085938 391.542969 1235.132812 383.566406 1242.226562 404.054688 C 1248.214844 421.347656 1212.042969 618.660156 1212.042969 618.660156 L 1305.492188 618.660156 C 1305.492188 618.660156 1243.027344 441.753906 1277.863281 399.1875 C 1302.65625 368.898438 1329.238281 354.6875 1348.070312 348.027344 C 1350.753906 350.050781 1354.085938 351.253906 1357.707031 351.253906 C 1363.222656 351.253906 1368.082031 348.476562 1370.980469 344.246094 C 1373.917969 347.472656 1378.144531 349.515625 1382.851562 349.515625 C 1388.574219 349.515625 1393.585938 346.511719 1396.4375 342.003906 C 1397.726562 342.34375 1399.078125 342.542969 1400.476562 342.542969 C 1406.554688 342.542969 1411.847656 339.15625 1414.574219 334.175781 C 1417.183594 331.320312 1418.789062 327.527344 1418.789062 323.355469 C 1418.789062 319.683594 1417.546875 316.304688 1415.472656 313.601562 C 1423.25 312.351562 1429.839844 307.550781 1433.488281 300.890625"/></g><g clip-path="url(#d)"><path fill="#FCCFD7" d="M 1115.929688 337.554688 C 1116.222656 337.59375 1116.507812 337.652344 1116.796875 337.675781 C 1118.265625 340.558594 1120.367188 343.0625 1122.902344 345.019531 C 1122.605469 346.15625 1122.441406 347.347656 1122.441406 348.574219 C 1122.441406 350.910156 1123.027344 353.105469 1124.046875 355.039062 C 1111.53125 358.609375 1102.292969 365.917969 1102.292969 365.917969 C 1107.894531 356.648438 1112.371094 347.089844 1115.929688 337.554688 Z M 1067.066406 363.597656 C 1066.652344 350.34375 1065.027344 329.859375 1063.355469 311.210938 C 1064.242188 310.460938 1065.035156 309.605469 1065.695312 308.644531 C 1068.058594 311.238281 1071.445312 312.875 1075.234375 312.875 C 1079.828125 312.875 1083.851562 310.464844 1086.140625 306.847656 C 1087.175781 307.117188 1088.257812 307.277344 1089.386719 307.277344 C 1092.152344 307.277344 1094.714844 306.394531 1096.820312 304.910156 C 1097.578125 305.601562 1098.390625 306.230469 1099.253906 306.789062 C 1097.898438 309.609375 1097.140625 312.773438 1097.140625 316.109375 C 1097.140625 322.148438 1099.625 327.589844 1103.613281 331.515625 C 1087.0625 369.261719 1068.042969 394.785156 1067.066406 363.597656 Z M 1026.574219 367.667969 C 1020.039062 367.074219 1011.011719 362.84375 1001.785156 357.386719 C 1002.011719 357.0625 1002.234375 356.738281 1002.445312 356.40625 C 1004.035156 356.816406 1005.699219 357.0625 1007.417969 357.0625 C 1014.898438 357.0625 1021.410156 352.902344 1024.769531 346.78125 C 1027.976562 343.269531 1029.945312 338.609375 1029.945312 333.484375 C 1029.945312 331.328125 1029.601562 329.253906 1028.960938 327.3125 C 1033.914062 325.761719 1038.109375 322.484375 1040.832031 318.183594 C 1042.570312 318.636719 1044.394531 318.902344 1046.28125 318.902344 C 1049.84375 318.902344 1053.203125 318.027344 1056.167969 316.503906 C 1047.066406 348.996094 1026.574219 367.667969 1026.574219 367.667969 Z M 1212.832031 326.511719 C 1216.351562 322.660156 1218.519531 317.550781 1218.519531 311.921875 C 1218.519531 302.402344 1212.371094 294.339844 1203.828125 291.429688 C 1203.851562 291.039062 1203.886719 290.648438 1203.886719 290.25 C 1203.886719 278.289062 1194.179688 268.585938 1182.203125 268.585938 C 1181 268.585938 1179.828125 268.6875 1178.679688 268.875 C 1176.484375 264.515625 1172.640625 261.125 1167.960938 259.53125 C 1167.976562 259.191406 1168.011719 258.855469 1168.011719 258.511719 C 1168.011719 251.878906 1164.550781 246.066406 1159.347656 242.734375 C 1159.441406 242.582031 1159.542969 242.433594 1159.632812 242.273438 C 1161.644531 240.070312 1162.878906 237.148438 1162.878906 233.929688 C 1162.878906 228.488281 1159.363281 223.878906 1154.484375 222.214844 C 1154.492188 221.988281 1154.511719 221.769531 1154.511719 221.542969 C 1154.511719 214.703125 1148.964844 209.152344 1142.117188 209.152344 C 1138.378906 209.152344 1135.035156 210.8125 1132.757812 213.425781 C 1131.78125 213.179688 1130.769531 213.035156 1129.714844 213.035156 C 1128.515625 213.035156 1127.355469 213.214844 1126.261719 213.535156 C 1124.011719 211.285156 1120.917969 209.898438 1117.488281 209.898438 C 1112.8125 209.898438 1108.761719 212.492188 1106.652344 216.308594 C 1105.15625 217.933594 1104.097656 219.957031 1103.636719 222.203125 C 1100.9375 223.109375 1098.660156 224.921875 1097.152344 227.277344 C 1093.792969 222.738281 1088.40625 219.78125 1082.320312 219.78125 C 1076.757812 219.78125 1071.777344 222.253906 1068.394531 226.148438 C 1066.941406 225.777344 1065.425781 225.5625 1063.859375 225.5625 C 1062.070312 225.5625 1060.347656 225.828125 1058.714844 226.300781 C 1055.375 222.960938 1050.757812 220.894531 1045.65625 220.894531 C 1038.691406 220.894531 1032.652344 224.75 1029.519531 230.433594 C 1027.292969 232.855469 1025.714844 235.867188 1025.035156 239.214844 C 1020.636719 240.695312 1016.980469 243.78125 1014.773438 247.777344 C 1012.519531 250.230469 1010.921875 253.289062 1010.253906 256.6875 C 1009.121094 256.832031 1008.015625 257.058594 1006.949219 257.367188 C 1003.023438 253.441406 997.597656 251.015625 991.609375 251.015625 C 983.433594 251.015625 976.34375 255.542969 972.652344 262.222656 C 970.039062 265.0625 968.183594 268.601562 967.382812 272.535156 C 962.21875 274.273438 957.929688 277.894531 955.335938 282.59375 C 951.871094 286.363281 949.726562 291.347656 949.628906 296.839844 C 945.652344 298.589844 942.371094 301.605469 940.285156 305.378906 C 937.902344 307.96875 936.207031 311.195312 935.480469 314.78125 C 930.773438 316.367188 926.859375 319.671875 924.492188 323.957031 C 921.257812 327.472656 919.273438 332.152344 919.273438 337.300781 C 919.273438 347.589844 927.144531 356.035156 937.199219 356.964844 C 940.464844 363.375 947.117188 367.773438 954.808594 367.773438 C 961.589844 367.773438 967.570312 364.355469 971.132812 359.15625 C 974.75 363.125 979.945312 365.632812 985.738281 365.632812 C 986.226562 365.632812 986.707031 365.609375 987.1875 365.574219 C 1019.894531 404.722656 1041.527344 397.84375 1047.652344 415.515625 C 1052.824219 430.4375 1021.585938 600.671875 1021.585938 600.671875 L 1102.292969 600.671875 C 1102.292969 600.671875 1048.34375 448.042969 1078.429688 411.320312 C 1099.84375 385.1875 1122.796875 372.925781 1139.0625 367.179688 C 1141.382812 368.925781 1144.261719 369.964844 1147.386719 369.964844 C 1152.152344 369.964844 1156.347656 367.566406 1158.847656 363.917969 C 1161.386719 366.699219 1165.035156 368.460938 1169.101562 368.460938 C 1174.046875 368.460938 1178.371094 365.871094 1180.835938 361.984375 C 1181.949219 362.277344 1183.113281 362.445312 1184.324219 362.445312 C 1189.574219 362.445312 1194.144531 359.527344 1196.5 355.230469 C 1198.75 352.765625 1200.140625 349.492188 1200.140625 345.894531 C 1200.140625 342.726562 1199.066406 339.8125 1197.277344 337.476562 C 1203.992188 336.398438 1209.679688 332.257812 1212.832031 326.511719"/></g><g clip-path="url(#e)"><path fill="#FCC0CB" d="M 960.214844 279.101562 C 960.59375 279.152344 960.957031 279.226562 961.335938 279.257812 C 963.226562 282.972656 965.929688 286.199219 969.199219 288.726562 C 968.816406 290.1875 968.601562 291.722656 968.601562 293.308594 C 968.601562 296.320312 969.355469 299.148438 970.671875 301.640625 C 954.550781 306.25 942.648438 315.671875 942.648438 315.671875 C 949.867188 303.71875 955.632812 291.390625 960.214844 279.101562 Z M 897.269531 312.679688 C 896.734375 295.589844 894.644531 269.179688 892.488281 245.136719 C 893.628906 244.167969 894.65625 243.066406 895.503906 241.828125 C 898.546875 245.167969 902.914062 247.277344 907.789062 247.277344 C 913.707031 247.277344 918.894531 244.171875 921.839844 239.511719 C 923.175781 239.859375 924.570312 240.0625 926.019531 240.0625 C 929.585938 240.0625 932.890625 238.925781 935.601562 237.011719 C 936.574219 237.902344 937.621094 238.710938 938.734375 239.433594 C 936.988281 243.070312 936.011719 247.148438 936.011719 251.453125 C 936.011719 259.238281 939.210938 266.253906 944.347656 271.316406 C 923.027344 319.980469 898.523438 352.886719 897.269531 312.679688 Z M 845.109375 317.925781 C 836.6875 317.160156 825.058594 311.703125 813.171875 304.667969 C 813.464844 304.25 813.753906 303.835938 814.023438 303.40625 C 816.070312 303.9375 818.214844 304.25 820.429688 304.25 C 830.066406 304.25 838.453125 298.890625 842.777344 291 C 846.914062 286.46875 849.449219 280.460938 849.449219 273.851562 C 849.449219 271.074219 849.007812 268.394531 848.179688 265.894531 C 854.5625 263.894531 859.964844 259.671875 863.472656 254.125 C 865.714844 254.710938 868.0625 255.054688 870.496094 255.054688 C 875.085938 255.054688 879.410156 253.921875 883.230469 251.960938 C 871.507812 293.851562 845.109375 317.925781 845.109375 317.925781 Z M 1085.050781 264.863281 C 1089.582031 259.894531 1092.375 253.308594 1092.375 246.050781 C 1092.375 233.777344 1084.453125 223.382812 1073.449219 219.628906 C 1073.480469 219.125 1073.523438 218.625 1073.523438 218.113281 C 1073.523438 202.6875 1061.019531 190.175781 1045.589844 190.175781 C 1044.042969 190.175781 1042.527344 190.304688 1041.050781 190.546875 C 1038.226562 184.929688 1033.269531 180.558594 1027.246094 178.503906 C 1027.261719 178.066406 1027.308594 177.632812 1027.308594 177.1875 C 1027.308594 168.636719 1022.851562 161.144531 1016.148438 156.847656 C 1016.269531 156.652344 1016.398438 156.460938 1016.511719 156.25 C 1019.105469 153.410156 1020.699219 149.648438 1020.699219 145.496094 C 1020.699219 138.480469 1016.167969 132.535156 1009.878906 130.390625 C 1009.890625 130.097656 1009.917969 129.816406 1009.917969 129.527344 C 1009.917969 120.707031 1002.769531 113.550781 993.949219 113.550781 C 989.136719 113.550781 984.824219 115.6875 981.894531 119.058594 C 980.636719 118.742188 979.332031 118.554688 977.972656 118.554688 C 976.425781 118.554688 974.9375 118.785156 973.523438 119.199219 C 970.628906 116.300781 966.640625 114.511719 962.222656 114.511719 C 956.199219 114.511719 950.980469 117.851562 948.261719 122.773438 C 946.339844 124.875 944.972656 127.476562 944.382812 130.375 C 940.90625 131.546875 937.96875 133.878906 936.027344 136.917969 C 931.695312 131.066406 924.761719 127.253906 916.917969 127.253906 C 909.753906 127.253906 903.339844 130.441406 898.980469 135.460938 C 897.105469 134.980469 895.15625 134.707031 893.136719 134.707031 C 890.835938 134.707031 888.613281 135.050781 886.507812 135.65625 C 882.207031 131.355469 876.261719 128.6875 869.691406 128.6875 C 860.71875 128.6875 852.9375 133.660156 848.898438 140.988281 C 846.03125 144.113281 844 147.992188 843.121094 152.308594 C 837.457031 154.21875 832.75 158.199219 829.902344 163.351562 C 827 166.511719 824.941406 170.453125 824.082031 174.835938 C 822.625 175.023438 821.199219 175.316406 819.824219 175.714844 C 814.765625 170.652344 807.777344 167.523438 800.0625 167.523438 C 789.53125 167.523438 780.394531 173.363281 775.644531 181.976562 C 772.277344 185.636719 769.886719 190.199219 768.851562 195.269531 C 762.203125 197.511719 756.675781 202.179688 753.332031 208.238281 C 748.871094 213.101562 746.109375 219.523438 745.980469 226.605469 C 740.863281 228.863281 736.632812 232.75 733.949219 237.613281 C 730.878906 240.957031 728.695312 245.113281 727.753906 249.738281 C 721.691406 251.785156 716.652344 256.042969 713.601562 261.566406 C 709.433594 266.101562 706.878906 272.136719 706.878906 278.773438 C 706.878906 292.039062 717.015625 302.929688 729.972656 304.128906 C 734.179688 312.390625 742.746094 318.0625 752.65625 318.0625 C 761.394531 318.0625 769.09375 313.65625 773.683594 306.953125 C 778.34375 312.070312 785.035156 315.300781 792.5 315.300781 C 793.132812 315.300781 793.75 315.269531 794.367188 315.226562 C 836.5 365.703125 864.367188 356.832031 872.261719 379.617188 C 878.921875 398.855469 838.679688 618.34375 838.679688 618.34375 L 942.648438 618.34375 C 942.648438 618.34375 873.148438 421.554688 911.90625 374.207031 C 939.492188 340.511719 969.0625 324.703125 990.019531 317.296875 C 993.003906 319.546875 996.710938 320.886719 1000.738281 320.886719 C 1006.875 320.886719 1012.28125 317.796875 1015.503906 313.089844 C 1018.773438 316.675781 1023.476562 318.949219 1028.714844 318.949219 C 1035.082031 318.949219 1040.65625 315.609375 1043.828125 310.597656 C 1045.261719 310.972656 1046.765625 311.191406 1048.324219 311.191406 C 1055.085938 311.191406 1060.972656 307.429688 1064.007812 301.890625 C 1066.910156 298.710938 1068.699219 294.492188 1068.699219 289.851562 C 1068.699219 285.765625 1067.3125 282.007812 1065.007812 279 C 1073.660156 277.609375 1080.988281 272.273438 1085.050781 264.863281"/></g><g clip-path="url(#f)"><path fill="#FCCFD7" d="M 590.917969 484.539062 C 593.746094 481.625 593.484375 476.925781 590.347656 474.347656 L 575.128906 461.816406 C 572.671875 470.269531 572.410156 493.585938 572.449219 496.300781 C 572.460938 499.003906 572.597656 501.695312 572.734375 504.382812 Z M 575.996094 535.632812 C 575.625 536.898438 575.164062 538.472656 574.804688 539.738281 L 593.785156 642.882812 C 595.246094 650.90625 589.789062 658.589844 581.527344 660.140625 C 581.105469 660.214844 580.660156 660.25 580.203125 660.289062 C 579.753906 660.398438 579.34375 660.511719 578.886719 660.597656 C 576.851562 660.96875 574.855469 660.933594 572.933594 660.511719 C 567.164062 659.347656 562.402344 654.859375 561.320312 648.835938 L 541.402344 540.804688 C 541.402344 540.804688 540.632812 537.46875 538.460938 537.445312 C 536.167969 537.492188 535.558594 540.839844 535.558594 540.839844 L 515.648438 648.835938 C 514.558594 654.859375 509.808594 659.347656 504.039062 660.511719 C 502.117188 660.933594 500.121094 660.96875 498.085938 660.597656 C 497.625 660.511719 497.179688 660.398438 496.757812 660.289062 C 496.3125 660.25 495.851562 660.214844 495.40625 660.140625 C 487.183594 658.589844 481.675781 650.90625 483.152344 642.882812 L 485.53125 629.96875 C 485.644531 629.855469 485.753906 629.746094 485.867188 629.632812 C 486.191406 629.421875 486.5 629.175781 486.785156 628.925781 C 492.09375 624.363281 492.9375 616.667969 488.96875 611.285156 L 502.128906 539.847656 C 502.414062 538.25 502.574219 536.640625 502.574219 535.015625 L 502.601562 474.609375 C 502.601562 470.246094 501.546875 465.945312 499.5 462.089844 L 469.667969 405.589844 L 475.375 393.28125 C 477.136719 389.847656 476.441406 385.332031 474.183594 382.542969 C 473.289062 381.441406 471.417969 380.226562 470.066406 379.59375 C 465.613281 377.488281 460.351562 379.222656 457.957031 383.414062 L 444.277344 357.480469 C 442.042969 353.675781 442.578125 348.480469 444.957031 345.160156 C 445.902344 343.84375 448.011719 342.332031 449.511719 341.550781 C 454.644531 338.761719 461.097656 340.632812 463.960938 345.730469 C 463.960938 345.730469 500.902344 411.292969 500.914062 411.292969 C 504.1875 417.117188 509.597656 421.667969 515.960938 423.773438 C 518.265625 424.53125 519.53125 424.628906 521.914062 424.964844 C 523.464844 425.175781 525.5625 425.175781 527.148438 425.148438 C 528.773438 425.113281 530.980469 425.0625 532.59375 425.0625 C 535.929688 425.050781 539.28125 425.074219 542.628906 425.175781 C 549.402344 425.386719 556.1875 425.882812 562.847656 427.171875 C 562.898438 427.183594 562.933594 427.195312 562.972656 427.195312 C 570.003906 428.570312 576.503906 431.855469 582.035156 436.394531 L 611.894531 460.851562 C 622.1875 469.277344 623.242188 484.636719 614.199219 494.394531 Z M 508.890625 390.328125 C 508.890625 374.460938 521.765625 361.597656 537.65625 361.597656 C 553.53125 361.597656 566.40625 374.460938 566.40625 390.328125 C 566.40625 406.207031 553.53125 419.074219 537.65625 419.074219 C 521.765625 419.074219 508.890625 406.207031 508.890625 390.328125"/></g><path fill="#FCCFD7" d="M 210.371094 461.554688 L 195.152344 474.078125 C 192.011719 476.679688 191.75 481.390625 194.59375 484.289062 L 212.777344 504.113281 C 212.914062 501.445312 213.050781 498.746094 213.074219 496.042969 C 213.113281 493.339844 212.851562 470.023438 210.371094 461.554688 Z M 337.859375 447.078125 L 349.347656 466.316406 L 329.339844 483.027344 C 321.550781 489.546875 310.039062 488.902344 303.015625 481.574219 L 283.234375 460.949219 C 283.234375 460.949219 282.898438 470.914062 282.898438 474.375 L 282.933594 534.753906 C 282.933594 536.367188 283.097656 538.015625 283.394531 539.601562 L 302.386719 642.636719 C 303.824219 650.644531 298.328125 658.355469 290.117188 659.902344 C 289.65625 659.964844 289.1875 660.003906 288.765625 660.027344 C 288.332031 660.164062 287.871094 660.261719 287.449219 660.324219 C 285.402344 660.722656 283.394531 660.683594 281.484375 660.261719 C 275.714844 659.109375 270.964844 654.597656 269.875 648.5625 L 249.964844 540.582031 C 249.964844 540.582031 249.34375 537.257812 247.0625 537.195312 C 244.890625 537.222656 244.097656 540.554688 244.097656 540.554688 L 224.1875 648.5625 C 223.097656 654.597656 218.359375 659.109375 212.589844 660.261719 C 210.679688 660.683594 208.660156 660.722656 206.625 660.324219 C 206.191406 660.261719 205.757812 660.164062 205.296875 660.027344 C 204.875 660.003906 204.402344 659.964844 203.980469 659.902344 C 195.746094 658.355469 190.261719 650.644531 191.714844 642.636719 L 210.707031 539.464844 C 210.347656 538.214844 209.886719 536.640625 209.515625 535.375 L 171.308594 494.132812 C 162.28125 484.390625 163.332031 469.03125 173.617188 460.601562 L 203.484375 436.121094 C 209.03125 431.609375 215.519531 428.324219 222.539062 426.933594 L 222.675781 426.933594 C 229.335938 425.621094 236.121094 425.125 242.882812 424.925781 C 246.242188 424.828125 249.566406 424.789062 252.929688 424.789062 C 254.554688 424.789062 256.761719 424.863281 258.375 424.890625 C 259.09375 424.890625 259.925781 424.925781 260.742188 424.890625 L 261.425781 424.890625 C 275.082031 424.890625 288.109375 430.703125 297.210938 440.878906 L 314.464844 460.167969 C 315.84375 461.71875 318.175781 461.941406 319.824219 460.703125 Z M 219.042969 389.96875 C 219.042969 374.101562 231.929688 361.222656 247.804688 361.222656 C 263.695312 361.222656 276.570312 374.101562 276.570312 389.96875 C 276.570312 405.847656 263.695312 418.714844 247.804688 418.714844 C 231.929688 418.714844 219.042969 405.847656 219.042969 389.96875"/><g clip-path="url(#g)"><path fill="#FCCFD7" d="M 486.785156 628.925781 C 492.09375 624.363281 492.9375 616.667969 488.96875 611.285156 C 488.78125 611.027344 488.632812 610.753906 488.421875 610.507812 L 432.304688 545.367188 L 429.800781 498.199219 C 429.601562 494.40625 430.320312 490.574219 431.921875 487.128906 L 469.667969 405.589844 L 475.375 393.28125 C 477.136719 389.847656 476.441406 385.332031 474.183594 382.542969 C 473.289062 381.441406 471.417969 380.226562 470.066406 379.59375 C 465.613281 377.488281 460.351562 379.222656 457.957031 383.414062 C 457.859375 383.585938 457.734375 383.734375 457.648438 383.910156 L 428.398438 442.851562 C 424.789062 450.066406 417.816406 455.109375 409.78125 455.867188 C 409.644531 455.878906 409.542969 455.878906 409.421875 455.917969 L 383.011719 457.304688 C 382.914062 457.28125 382.789062 457.292969 382.6875 457.292969 C 374.601562 457.390625 367.109375 453.101562 362.792969 446.296875 L 327.527344 390.75 C 324.785156 386.449219 319.070312 385.097656 314.726562 387.761719 C 313.4375 388.53125 311.664062 389.933594 310.90625 391.136719 C 308.984375 394.136719 308.761719 398.695312 310.882812 401.917969 L 337.859375 447.078125 L 349.347656 466.316406 L 363.910156 490.710938 C 365.871094 493.972656 366.984375 497.703125 367.183594 501.484375 L 369.925781 554.214844 C 370 555.628906 369.949219 557.054688 369.75 558.480469 L 357.929688 649.292969 C 357.023438 656.371094 362.171875 662.828125 369.429688 663.796875 C 369.828125 663.847656 370.222656 663.859375 370.621094 663.871094 C 370.980469 663.945312 371.390625 664.019531 371.785156 664.070312 C 373.585938 664.304688 375.320312 664.179688 376.984375 663.734375 C 381.96875 662.445312 385.902344 658.316406 386.585938 653 L 399 557.8125 C 399 557.8125 399.375 554.847656 401.382812 554.710938 C 401.964844 554.675781 402.449219 554.949219 402.859375 555.332031 L 403.070312 555.578125 L 444.984375 604.246094 L 466.542969 629.335938 C 471.179688 634.726562 479.453125 635.222656 485.023438 630.476562 C 485.183594 630.300781 485.359375 630.140625 485.53125 629.96875 C 485.644531 629.855469 485.753906 629.746094 485.867188 629.632812 C 486.191406 629.421875 486.5 629.175781 486.785156 628.925781 Z M 368.796875 427.628906 C 368.066406 413.78125 378.71875 401.957031 392.589844 401.226562 C 406.457031 400.496094 418.289062 411.140625 419.007812 425 C 419.742188 438.847656 409.097656 450.671875 395.230469 451.402344 C 381.363281 452.136719 369.527344 441.488281 368.796875 427.628906"/></g></svg>