<?xml version="1.0" encoding="iso-8859-1"?>
<!-- Generator: Adobe Illustrator 19.0.0, SVG Export Plug-In . SVG Version: 6.00 Build 0)  -->
<svg version="1.1" id="Layer_1" xmlns="http://www.w3.org/2000/svg" xmlns:xlink="http://www.w3.org/1999/xlink" x="0px" y="0px"
	 viewBox="0 0 512 512" style="enable-background:new 0 0 512 512;" xml:space="preserve">
<g>
	<path style="fill:#C7CFE2;" d="M503.172,141.241H308.966c-4.875,0-8.828-3.953-8.828-8.828l0,0c0-4.875,3.953-8.828,8.828-8.828
		h194.207c4.875,0,8.828,3.953,8.828,8.828l0,0C512,137.289,508.047,141.241,503.172,141.241z"/>
	<path style="fill:#C7CFE2;" d="M203.034,141.241H8.828c-4.875,0-8.828-3.953-8.828-8.828l0,0c0-4.875,3.953-8.828,8.828-8.828
		h194.207c4.875,0,8.828,3.953,8.828,8.828l0,0C211.862,137.289,207.91,141.241,203.034,141.241z"/>
</g>
<g>
	<path style="fill:#959CB3;" d="M105.931,105.931L105.931,105.931c-4.875,0-8.828,3.953-8.828,8.828v44.138h17.655v-44.138
		C114.759,109.884,110.806,105.931,105.931,105.931z"/>
	<path style="fill:#959CB3;" d="M406.069,105.931L406.069,105.931c-4.875,0-8.828,3.953-8.828,8.828v44.138h17.655v-44.138
		C414.897,109.884,410.944,105.931,406.069,105.931z"/>
</g>
<g>
	<path style="fill:#464655;" d="M225.103,282.483L225.103,282.483c-7.313,0-13.241-5.929-13.241-13.241v-26.483
		c0-7.313,5.929-13.241,13.241-13.241l0,0c7.313,0,13.241,5.929,13.241,13.241v26.483
		C238.345,276.554,232.416,282.483,225.103,282.483z"/>
	<path style="fill:#464655;" d="M286.897,282.483L286.897,282.483c-7.313,0-13.241-5.929-13.241-13.241v-26.483
		c0-7.313,5.929-13.241,13.241-13.241l0,0c7.313,0,13.241,5.929,13.241,13.241v26.483
		C300.138,276.554,294.209,282.483,286.897,282.483z"/>
</g>
<rect x="238.345" y="247.172" style="fill:#5B5D6E;" width="35.31" height="88.276"/>
<g>
	<path style="fill:#C7CFE2;" d="M150.069,406.069c-4.875,0-8.828-3.953-8.828-8.828c0-78.634,14.418-115.302,23.009-130.155
		c2.272-3.927,3.474-8.452,3.474-13.086v-24.483c0-4.875,3.953-8.828,8.828-8.828s8.828,3.953,8.828,8.828v24.483
		c0,7.737-2.022,15.319-5.849,21.927c-6.202,10.723-20.633,44.021-20.633,121.314C158.897,402.116,154.944,406.069,150.069,406.069z
		"/>
	<path style="fill:#C7CFE2;" d="M361.931,406.069c-4.875,0-8.828-3.953-8.828-8.828c0-77.293-14.431-110.591-20.638-121.319
		c-3.823-6.603-5.845-14.185-5.845-21.922v-24.483c0-4.875,3.953-8.828,8.828-8.828s8.828,3.953,8.828,8.828v24.483
		c0,4.633,1.203,9.16,3.47,13.081c8.595,14.858,23.012,51.526,23.012,130.159C370.759,402.116,366.806,406.069,361.931,406.069z"/>
</g>
<g>
	<path style="fill:#AFB9D2;" d="M176.552,220.69h-8.828v8.828c0,4.875,3.953,8.828,8.828,8.828h26.483V220.69H176.552z"/>
	<path style="fill:#AFB9D2;" d="M335.448,220.69h-26.483v17.655h26.483c4.875,0,8.828-3.953,8.828-8.828v-8.828H335.448z"/>
</g>
<path style="fill:#82889D;" d="M132.414,167.724H79.448l6.388-12.776c1.495-2.99,4.552-4.879,7.895-4.879h24.398
	c3.343,0,6.4,1.889,7.895,4.879L132.414,167.724z"/>
<rect x="79.448" y="167.724" style="fill:#5B5D6E;" width="52.966" height="17.655"/>
<path style="fill:#82889D;" d="M432.552,167.724h-52.966l6.388-12.776c1.495-2.99,4.552-4.879,7.895-4.879h24.398
	c3.343,0,6.4,1.889,7.895,4.879L432.552,167.724z"/>
<rect x="379.586" y="167.724" style="fill:#5B5D6E;" width="52.966" height="17.655"/>
<path style="fill:#E4EAF6;" d="M441.379,203.034H70.621c-4.875,0-8.828-3.953-8.828-8.828l0,0c0-4.875,3.953-8.828,8.828-8.828
	h370.759c4.875,0,8.828,3.953,8.828,8.828l0,0C450.207,199.082,446.254,203.034,441.379,203.034z"/>
<g>
	<path style="fill:#D7DEED;" d="M334.869,166.784l-34.951-3.495c-29.206-2.921-58.632-2.921-87.838,0l-34.951,3.495
		c-6.083,0.608-11.768,3.303-16.09,7.625l-10.97,10.97H256h105.931l-10.97-10.97C346.637,170.086,340.952,167.392,334.869,166.784z"
		/>
	<path style="fill:#D7DEED;" d="M123.586,203.034l9.899,9.899c4.967,4.967,11.702,7.756,18.727,7.756h19.926
		c8.335,0,16.184,3.925,21.186,10.593l7.945,10.593c6.668,8.892,17.134,14.124,28.248,14.124h52.966
		c11.114,0,21.58-5.233,28.248-14.124l7.945-10.593c5.002-6.668,12.851-10.593,21.186-10.593h19.927
		c7.023,0,13.76-2.791,18.727-7.756l9.898-9.899H123.586z"/>
</g>
<rect x="196.414" y="348.69" style="fill:#5B5D6E;" width="29.793" height="26.483"/>
<path style="fill:#959CB3;" d="M317.793,397.241h-88.276c-4.875,0-8.828-3.953-8.828-8.828v-52.966c0-4.875,3.953-8.828,8.828-8.828
	h88.276c4.875,0,8.828,3.953,8.828,8.828v52.966C326.621,393.289,322.668,397.241,317.793,397.241z"/>
<path style="fill:#C5D0E4;" d="M194.207,379.586h-8.828c-4.875,0-8.828-3.953-8.828-8.828v-17.655c0-4.875,3.953-8.828,8.828-8.828
	h8.828c4.875,0,8.828,3.953,8.828,8.828v17.655C203.034,375.634,199.082,379.586,194.207,379.586z"/>
<circle style="fill:#464655;" cx="291.31" cy="361.931" r="26.483"/>
<g>
	<circle style="fill:#E4EAF6;" cx="291.31" cy="361.931" r="8.828"/>
	<circle style="fill:#E4EAF6;" cx="242.759" cy="375.172" r="8.828"/>
</g>
<path style="fill:#789178;" d="M247.172,357.517h-8.828c-2.438,0-4.414-1.976-4.414-4.414v-8.828c0-2.438,1.976-4.414,4.414-4.414
	h8.828c2.438,0,4.414,1.976,4.414,4.414v8.828C251.586,355.541,249.61,357.517,247.172,357.517z"/>
<g>
	<path style="fill:#FF6464;" d="M150.069,203.034h-8.828c-4.875,0-8.828-3.953-8.828-8.828v-8.828h26.483v8.828
		C158.897,199.082,154.944,203.034,150.069,203.034z"/>
	<path style="fill:#FF6464;" d="M379.586,203.034h-8.828c-4.875,0-8.828-3.953-8.828-8.828v-8.828h26.483v8.828
		C388.414,199.082,384.461,203.034,379.586,203.034z"/>
</g>
<g>
	<path style="fill:#C7CFE2;" d="M229.71,166.783l11.65-3.495c2.4-0.721,16.639-1.262,36.834-1.626
		c-22.037-1.109-44.137-0.572-66.113,1.626l-34.951,3.495c-6.083,0.608-11.768,3.303-16.092,7.625l-10.97,10.972h70.621l3.657-10.97
		C225.788,170.086,227.682,167.392,229.71,166.783z"/>
	<path style="fill:#C7CFE2;" d="M237.757,241.876l-2.648-10.593c-1.667-6.668-4.284-10.593-7.062-10.593h-6.643
		c-2.342,0-4.586-2.791-6.242-7.757l-3.299-9.898h-88.276l9.899,9.898c4.967,4.967,11.702,7.757,18.726,7.757h19.927
		c8.335,0,16.184,3.925,21.186,10.593l7.945,10.593c6.668,8.892,17.134,14.124,28.248,14.124h17.655
		C243.468,256,239.979,250.767,237.757,241.876z"/>
</g>
<g>
</g>
<g>
</g>
<g>
</g>
<g>
</g>
<g>
</g>
<g>
</g>
<g>
</g>
<g>
</g>
<g>
</g>
<g>
</g>
<g>
</g>
<g>
</g>
<g>
</g>
<g>
</g>
<g>
</g>
</svg>
