<?xml version="1.0" encoding="UTF-8"?><svg xmlns="http://www.w3.org/2000/svg" xmlns:xlink="http://www.w3.org/1999/xlink" contentScriptType="text/ecmascript" width="1440" zoomAndPan="magnify" contentStyleType="text/css" viewBox="0 0 1440 809.999993" height="809.999993" preserveAspectRatio="xMidYMid meet" version="1.0"><defs><clipPath id="clip-0"><path d="M 0 505.515625 L 799.101562 505.515625 L 799.101562 810 L 0 810 Z M 0 505.515625 " clip-rule="nonzero"/></clipPath><clipPath id="clip-1"><path d="M 666.953125 434.867188 L 1440 434.867188 L 1440 810 L 666.953125 810 Z M 666.953125 434.867188 " clip-rule="nonzero"/></clipPath><clipPath id="clip-2"><path d="M 951 343.035156 L 1151.21875 343.035156 L 1151.21875 628 L 951 628 Z M 951 343.035156 " clip-rule="nonzero"/></clipPath><clipPath id="clip-3"><path d="M 1066.367188 106.523438 L 1427.867188 106.523438 L 1427.867188 579.773438 L 1066.367188 579.773438 Z M 1066.367188 106.523438 " clip-rule="nonzero"/></clipPath></defs><rect x="-144" width="1728" fill="rgb(100%, 100%, 100%)" y="-80.999999" height="971.999992" fill-opacity="1"/><rect x="-144" width="1728" fill="rgb(100%, 100%, 100%)" y="-80.999999" height="971.999992" fill-opacity="1"/><rect x="-144" width="1728" fill="rgb(100%, 94.898987%, 96.469116%)" y="-80.999999" height="971.999992" fill-opacity="1"/><path fill="rgb(98.81897%, 75.289917%, 79.60968%)" d="M 1652.347656 504.980469 C 1652.445312 516.117188 1653.847656 527.28125 1652.539062 538.390625 C 1646.691406 535.695312 1649.84375 537.976562 1646.390625 468.820312 C 1627.410156 465.605469 1624.175781 470.136719 1618.28125 465.921875 C 1611.78125 470.140625 1603.34375 467.296875 1596.472656 470.558594 C 1597.550781 470.96875 1599.710938 471.796875 1600.789062 472.207031 C 1599.441406 473.566406 1598.132812 474.925781 1596.867188 476.3125 C 1597.984375 476.71875 1600.230469 477.535156 1601.359375 477.929688 C 1599.179688 478.949219 1597.003906 479.945312 1594.839844 480.921875 C 1594.554688 476.910156 1594.472656 472.871094 1595.101562 468.886719 C 1594.105469 469.078125 1592.148438 469.457031 1591.15625 469.664062 C 1591.332031 470.003906 1591.671875 470.683594 1591.835938 471.023438 C 1590.976562 474.707031 1591.617188 478.679688 1589.601562 482.066406 C 1588.132812 477.808594 1587.957031 473.308594 1587.46875 468.886719 C 1587.003906 483.644531 1587.875 498.425781 1588.378906 513.179688 C 1577.628906 508.992188 1566.925781 504.691406 1556.214844 500.394531 C 1555.398438 490.945312 1555.78125 481.441406 1554.949219 471.988281 C 1554.515625 476.53125 1554.488281 481.113281 1553.917969 485.65625 C 1552.148438 481.519531 1552.339844 476.992188 1552.367188 472.613281 C 1544.597656 472.054688 1536.800781 471.6875 1529.035156 472.300781 C 1528.667969 474.367188 1528.339844 476.460938 1527.726562 478.476562 C 1527.726562 477.113281 1527.742188 474.410156 1527.742188 473.050781 C 1525.046875 472.070312 1522.433594 470.957031 1519.890625 469.703125 C 1520.066406 470.410156 1520.421875 471.839844 1520.613281 472.546875 C 1514.980469 473.390625 1509.265625 473.292969 1503.605469 473.675781 C 1502.871094 475.632812 1502.257812 477.714844 1500.410156 478.910156 C 1500.953125 477.644531 1502.027344 475.117188 1502.574219 473.835938 C 1488.359375 474.734375 1514.679688 484.625 1283.042969 391.046875 C 1275.4375 387.867188 1267.644531 385.105469 1260.363281 381.203125 C 1260.949219 349.503906 1262.078125 317.820312 1262.839844 286.121094 C 1257.578125 286.664062 1252.324219 287.234375 1247.074219 287.726562 C 1245.929688 280.652344 1245.671875 273.5 1245.957031 266.363281 C 1242.324219 264.1875 1238.707031 262.011719 1235.101562 259.820312 C 1234.734375 249.90625 1235.902344 240.007812 1235.726562 230.109375 C 1232.285156 224.261719 1226.773438 219.8125 1223.195312 213.980469 C 1223.523438 185.941406 1222.664062 209.003906 1220.882812 157.980469 C 1221.089844 155.75 1219.605469 154.105469 1218.257812 152.582031 C 1217.441406 163.894531 1219.226562 175.265625 1218.300781 186.578125 C 1217.144531 195.664062 1218.164062 204.816406 1218.339844 213.9375 C 1216.3125 214.226562 1214.339844 214.539062 1212.351562 214.851562 C 1212.011719 223.429688 1213.035156 232 1212.855469 240.59375 C 1209.550781 243.027344 1206.257812 245.488281 1202.980469 247.949219 C 1204.246094 257.851562 1202.382812 267.777344 1202 277.691406 C 1201.332031 283.511719 1201.714844 289.371094 1201.347656 295.203125 C 1200.492188 300.984375 1194.042969 303.691406 1192.179688 308.886719 C 1190.695312 333.320312 1193.292969 357.757812 1193.347656 382.210938 C 1166.265625 398.332031 1174.140625 397.167969 1162.574219 393.359375 C 1140.613281 383.8125 1117.976562 375.789062 1096.601562 364.953125 C 1095.898438 352.355469 1095.363281 295.800781 1094.792969 289.902344 C 1091.964844 282.761719 1085.121094 277.8125 1082.808594 270.429688 C 1081.378906 255.835938 1081.976562 240.933594 1078.765625 226.558594 C 1075.9375 222.398438 1071.175781 219.949219 1068.195312 215.855469 C 1068.929688 208.066406 1068.792969 200.203125 1067.691406 192.46875 C 1065.613281 192.480469 1063.542969 192.480469 1061.488281 192.496094 C 1062.6875 173.742188 1058.5625 159.390625 1059.175781 130.496094 C 1058.671875 129.683594 1057.664062 128.035156 1057.164062 127.222656 C 1055.980469 139.800781 1058.320312 152.433594 1056.699219 164.984375 C 1055.515625 173.988281 1057.625 183.03125 1056.507812 192.003906 C 1054.507812 198.421875 1047.789062 201.523438 1043.175781 205.863281 C 1043.816406 218.074219 1045.269531 230.230469 1045.953125 242.429688 C 1042.769531 244.726562 1039.242188 246.644531 1036.5625 249.554688 C 1036.605469 256.152344 1036.808594 262.773438 1034.644531 269.125 C 1030.035156 269.722656 1025.449219 270.402344 1020.878906 271.121094 C 1019.90625 271.277344 1024.574219 324.648438 1024.945312 329.582031 C 1031.394531 415.675781 1038.914062 436.476562 998.308594 516.550781 C 995.285156 522.511719 993.53125 526.15625 990.15625 528.289062 C 965.253906 544.839844 960.605469 546.457031 955.601562 547.039062 C 955.585938 546.019531 955.5625 543.992188 955.546875 542.988281 C 953.546875 544.089844 951.5625 545.175781 949.546875 546.222656 C 949.476562 544.492188 949.421875 542.773438 949.378906 541.054688 C 948.695312 540.832031 948.039062 540.527344 947.417969 540.164062 C 946.269531 540.152344 945.019531 540.140625 944.242188 540.132812 C 944.253906 539.203125 944.25 538.277344 944.253906 537.351562 C 942.816406 535.484375 941.941406 533.179688 941.941406 530.832031 C 941.941406 203.082031 933.335938 244.207031 944.269531 228.953125 C 942.050781 163.617188 942.207031 108.734375 941.085938 82.617188 C 936.785156 82.683594 932.160156 82.496094 928.691406 85.472656 C 918.460938 85.601562 920.175781 81.195312 860.53125 85.730469 C 846.359375 81.371094 836.902344 103.234375 811.0625 106.863281 C 811.675781 123.332031 810.21875 140.003906 813.023438 156.320312 C 811.703125 164.605469 812.125 173.019531 811.089844 181.332031 C 811.59375 181.875 812.585938 182.949219 813.078125 183.492188 C 813.28125 185.738281 813.527344 187.996094 813.796875 190.238281 C 813.105469 191.828125 812.425781 193.421875 811.757812 195.023438 C 774.304688 193.625 782.367188 194.265625 769.417969 200.667969 C 768.875 203.414062 768.316406 206.175781 767.757812 208.9375 C 758.710938 208.503906 748.398438 209.207031 741.976562 216.484375 C 741.976562 216.484375 742.699219 547.242188 742.699219 547.246094 C 735.082031 547.039062 727.421875 546.539062 720.128906 544.15625 C 714 522.574219 721.109375 232.660156 714.824219 153.738281 C 714.824219 153.738281 631.832031 151.382812 628.542969 151.425781 C 624.773438 154.433594 620.675781 156.976562 616.378906 159.125 C 616.460938 162.304688 616.570312 165.503906 616.703125 168.699219 C 612.011719 168.699219 607.316406 168.671875 602.636719 168.371094 C 599.34375 171.144531 595.738281 173.527344 592.027344 175.675781 C 588.976562 208.261719 603.734375 421.253906 597.113281 442.550781 C 600.800781 453.578125 596.84375 465.054688 597.890625 476.328125 C 597.074219 485.371094 598.1875 494.441406 597.5625 503.484375 C 597.398438 508.148438 595.316406 512.417969 594.664062 516.988281 C 594.230469 521.953125 594.5 526.941406 594.394531 531.933594 C 586.613281 532.652344 578.746094 531.753906 570.980469 532.558594 C 569.753906 533.851562 568.804688 535.359375 567.796875 536.816406 C 573.0625 537.195312 578.339844 537.371094 583.605469 537.820312 C 584.542969 538.910156 585.507812 539.996094 586.476562 541.082031 C 586.503906 541.898438 586.554688 543.53125 586.570312 544.347656 C 588.816406 544.808594 591.929688 543.613281 593.5625 545.734375 C 593.753906 546.824219 594.136719 548.996094 594.339844 550.085938 C 591.429688 549.488281 588.570312 548.808594 585.714844 548.074219 C 585.375 547.09375 584.691406 545.164062 584.351562 544.195312 C 583.277344 545.542969 582.21875 546.917969 581.167969 548.277344 C 579.386719 548.726562 577.617188 549.175781 575.851562 549.625 C 575.742188 548.523438 575.511719 546.292969 575.402344 545.175781 C 574.734375 546.425781 574.09375 547.679688 573.46875 548.957031 C 570.597656 548.492188 566.800781 549.351562 565.523438 545.953125 C 565.523438 547.652344 565.507812 549.378906 565.496094 551.105469 C 564.066406 549.8125 562.667969 548.523438 561.265625 547.230469 C 561.074219 548.65625 560.679688 551.511719 560.488281 552.941406 C 559.78125 551.769531 559.085938 550.601562 558.40625 549.433594 C 558.597656 549.039062 558.953125 548.222656 559.144531 547.828125 C 549.113281 523.664062 556.796875 169.609375 554.109375 108.984375 C 538.867188 108.136719 472.5 106.582031 458.792969 105.21875 C 455.308594 108.46875 451.675781 111.554688 448.140625 114.738281 C 448.222656 118.625 448.085938 122.515625 447.894531 126.402344 C 444.222656 126.226562 440.546875 126.050781 436.875 125.792969 C 433.011719 129.75 425.882812 132.441406 426.535156 138.996094 C 426.535156 138.996094 428.65625 565 428.65625 565.003906 C 424.546875 564.988281 420.425781 564.976562 416.316406 564.960938 C 416.628906 563.113281 416.96875 561.289062 417.296875 559.46875 C 416.546875 558.613281 415.8125 557.769531 415.078125 556.925781 C 414.726562 557.386719 413.992188 558.3125 413.625 558.773438 C 408.386719 558.691406 403.148438 558.515625 397.921875 558.324219 C 398.101562 549.757812 398.316406 541.175781 396.847656 532.691406 C 398.332031 532.078125 399.8125 531.480469 401.296875 530.882812 C 397.652344 530.898438 394.019531 530.910156 390.386719 530.855469 C 391.433594 531.632812 392.496094 532.417969 393.554688 533.207031 C 392.984375 543.761719 394.234375 554.339844 393.554688 564.921875 C 391.542969 564.894531 389.554688 564.878906 387.554688 564.867188 C 387.367188 555.199219 386.753906 545.472656 387.773438 535.820312 L 390.847656 537.695312 C 389.488281 535.425781 387.121094 533.546875 387.066406 530.71875 C 386.246094 519.585938 386.816406 459.554688 385.664062 444.300781 C 376.917969 442.695312 366.511719 439.078125 358.714844 445.253906 C 355.328125 448.203125 350.632812 448.175781 346.46875 449.101562 C 346.335938 450.121094 346.0625 452.132812 345.925781 453.152344 C 342.90625 453.25 339.84375 453.738281 336.878906 453.019531 C 335.601562 446.992188 337.109375 440.75 335.789062 434.753906 C 334.375 432.851562 332.511719 431.339844 330.8125 429.710938 C 330.824219 421.535156 331.3125 413.378906 331.734375 405.230469 C 330.183594 405.136719 328.632812 405.039062 327.082031 404.945312 C 327.859375 399.207031 323.941406 395.167969 319.996094 391.742188 C 319.886719 385.566406 319.898438 379.40625 319.871094 373.246094 C 317.804688 372.976562 315.722656 372.71875 313.667969 372.472656 C 313.328125 364.476562 314.035156 356.4375 313.042969 348.46875 C 310.894531 356.765625 313.109375 365.414062 311.710938 373.792969 C 310.132812 378.253906 305.449219 380.398438 301.996094 383.230469 C 302.921875 392.039062 303.953125 400.851562 304.132812 409.707031 C 300.785156 410.820312 297.316406 411.675781 294.1875 413.335938 C 294.050781 414.371094 293.792969 416.4375 293.65625 417.472656 C 291.792969 417.839844 289.929688 418.207031 288.078125 418.574219 C 292.410156 503.398438 292.03125 499.449219 289.546875 503.347656 C 290.1875 503.101562 291.453125 502.597656 292.078125 502.339844 C 292.769531 514.648438 294.363281 527.769531 288.324219 539.109375 C 288.511719 539.695312 288.90625 540.867188 289.097656 541.4375 C 287.261719 549.839844 285.589844 558.449219 281.140625 565.941406 C 280.691406 564.105469 280.144531 562.308594 279.535156 560.542969 C 277.179688 560.121094 274.773438 559.984375 272.40625 559.78125 C 272.8125 558.707031 273.234375 557.644531 273.65625 556.585938 C 270.378906 560.597656 266.867188 564.445312 262.878906 567.777344 C 261.480469 556.070312 262.269531 544.238281 262.199219 532.472656 C 262.8125 531.945312 264.023438 530.871094 264.621094 530.339844 C 264.035156 529.988281 262.839844 529.292969 262.242188 528.953125 C 262.09375 496.070312 262.0625 463.191406 262.171875 430.320312 C 253.96875 429.832031 245.726562 427.003906 237.523438 428.90625 C 234.609375 429.480469 234.367188 432.785156 233.453125 435.039062 C 229.167969 435.3125 224.894531 435.640625 220.625 435.992188 C 221.605469 436.101562 223.5625 436.320312 224.542969 436.441406 C 224.570312 437.664062 224.609375 440.101562 224.636719 441.324219 C 222.625 441.527344 220.609375 441.71875 218.609375 441.921875 C 218.148438 439.679688 217.6875 437.433594 217.210938 435.203125 C 216.421875 436.957031 215.660156 438.710938 214.925781 440.492188 C 209.347656 441.488281 203.824219 443.921875 198.066406 442.644531 C 196.679688 443.335938 195.292969 444.015625 193.917969 444.710938 C 193.46875 446.234375 193.019531 447.757812 192.570312 449.292969 C 191.414062 448.9375 190.257812 448.597656 189.113281 448.257812 C 187.835938 448.992188 186.558594 449.726562 185.265625 450.449219 C 184.40625 455.847656 183.265625 461.355469 184.285156 466.820312 C 185.988281 477.0625 182.679688 487.273438 183.851562 497.511719 C 184.027344 499.242188 184.707031 514.546875 183.808594 520.523438 C 183.046875 525.703125 184.9375 530.855469 184.230469 536.050781 C 182.75 547.691406 184.21875 559.425781 183.863281 571.121094 C 180.613281 571.339844 177.308594 571.339844 174.109375 572.035156 C 173.566406 573.910156 173.253906 575.839844 172.886719 577.757812 C 168.519531 577.71875 164.125 577.976562 159.785156 577.445312 C 158.585938 577.839844 157.417969 578.277344 156.273438 578.75 C 156.054688 580.902344 156.097656 583.0625 156.082031 585.238281 C 156.355469 583.402344 156.476562 581.511719 157.347656 579.867188 C 160.234375 579.539062 158.613281 583.496094 159.265625 585.171875 C 157.335938 585.648438 155.402344 586.136719 153.484375 586.640625 C 153.578125 592.417969 153.785156 598.210938 153.527344 604.003906 C 137.109375 607.277344 155.246094 604.527344 116.332031 606.984375 C 116.207031 604.777344 115.234375 569.46875 115.28125 554.640625 C 116.042969 554.125 117.582031 553.117188 118.34375 552.617188 C 117.488281 552.847656 115.800781 553.296875 114.941406 553.527344 C 115.089844 547.894531 115.132812 444.71875 114.453125 413.308594 C 112.355469 413.214844 110.25 413.09375 108.152344 412.96875 C 101.308594 410.183594 93.773438 411.761719 86.589844 411.476562 C 85.839844 414.097656 85.160156 416.738281 84.496094 419.390625 C 77.9375 419.660156 71.367188 419.621094 64.796875 419.511719 C 64.632812 421.089844 64.480469 422.679688 64.332031 424.269531 C 61.953125 425.074219 59.613281 425.957031 57.351562 427.03125 C 52.808594 427.441406 48.210938 427.34375 43.734375 426.339844 C 42.660156 428.730469 41.734375 431.179688 40.863281 433.667969 C 40.402344 433.476562 39.488281 433.109375 39.027344 432.933594 C 38.511719 433.382812 37.476562 434.292969 36.960938 434.742188 C 34.347656 442.359375 34.496094 450.3125 36.226562 458.089844 C 29.859375 457.984375 23.488281 457.875 17.148438 458.457031 C 16.226562 461.667969 14.988281 464.78125 13.558594 467.800781 C 5.21875 469.039062 -3.203125 468.167969 -11.582031 468.074219 C -11.324219 468.753906 -10.808594 470.113281 -10.550781 470.792969 C -11.121094 471.148438 -12.25 471.867188 -12.820312 472.222656 C -12.753906 471.09375 -12.628906 468.847656 -12.5625 467.734375 C -13.867188 468.863281 -15.148438 469.992188 -16.441406 471.148438 C -18.46875 471.828125 -20.480469 472.535156 -22.496094 473.242188 C -22.34375 495.910156 -22.863281 518.578125 -23.09375 541.246094 C -26.207031 540.839844 -29.3125 540.335938 -32.414062 539.847656 C -32.441406 535.632812 -32.332031 531.414062 -32.128906 527.214844 C -29.570312 526.929688 -27.011719 526.628906 -24.46875 526.207031 C -26.875 525.296875 -29.378906 524.710938 -31.894531 524.289062 C -31.964844 523.882812 -32.074219 523.09375 -32.128906 522.683594 C -29.5 522.453125 -26.863281 522.179688 -24.25 521.828125 C -29.445312 519.816406 -36.195312 518.6875 -41.214844 521.625 C -38.574219 521.855469 -35.921875 522.003906 -33.28125 522.128906 C -33.363281 522.710938 -33.515625 523.882812 -33.582031 524.464844 C -36.234375 524.382812 -39.148438 523.882812 -41.253906 525.960938 C -38.546875 526.34375 -35.828125 526.640625 -33.105469 526.925781 C -33.214844 531.101562 -33.433594 535.289062 -33.785156 539.464844 C -35.828125 539.710938 -37.976562 539.585938 -39.949219 540.214844 C -42.601562 542.101562 -44.042969 545.121094 -45.378906 548.003906 C -51.039062 548.398438 -56.710938 548.601562 -62.382812 548.210938 C -62.65625 548.914062 -63.1875 550.34375 -63.460938 551.050781 C -72.332031 555.726562 -84.242188 550.917969 -85.078125 557.917969 C -89.449219 578.640625 -83.15625 583.957031 -86.957031 595.136719 C -87.78125 616.59375 -85.429688 605.261719 -92.382812 622.472656 C -93.867188 618.773438 -94.777344 614.84375 -94.097656 610.859375 C -96.273438 611.128906 -98.453125 611.402344 -100.628906 611.675781 C -101.351562 613.074219 -102.070312 614.503906 -102.792969 615.929688 C -102.070312 617.550781 -101.351562 619.195312 -100.640625 620.839844 C -102.628906 621.070312 -104.613281 621.300781 -106.601562 621.53125 C -105.324219 621.191406 -102.75 620.5 -101.472656 620.144531 C -103.089844 619.167969 -104.695312 618.214844 -106.300781 617.25 C -106.683594 618.390625 -107.445312 620.664062 -107.824219 621.804688 C -107.988281 619.65625 -108.164062 617.507812 -108.328125 615.371094 C -114.328125 615.261719 -120.34375 615.207031 -126.34375 615.398438 C -127.730469 618.59375 -129.621094 621.519531 -131.933594 624.128906 C -132.65625 623.503906 -134.097656 622.238281 -134.816406 621.613281 C -136.613281 622.117188 -138.410156 622.648438 -140.207031 623.148438 C -140.097656 621.898438 -139.988281 620.660156 -139.867188 619.425781 C -142.613281 615.820312 -144.640625 611.632812 -147.960938 608.492188 C -150.613281 605.976562 -153.253906 603.40625 -155.144531 600.265625 C -157.226562 604.25 -160.789062 607.023438 -164 610.042969 L -164 659.824219 L 1664.5 659.824219 L 1664.5 504.613281 C 1660.429688 504.734375 1656.390625 504.84375 1652.347656 504.980469 Z M -60.765625 550.289062 C -56.480469 549.242188 -52.046875 549.148438 -47.652344 549.203125 C -47.613281 549.800781 -47.503906 550.996094 -47.449219 551.59375 C -51.882812 551.253906 -56.605469 552.207031 -60.765625 550.289062 Z M 67.417969 425.820312 C 67.375 424.84375 67.308594 422.871094 67.28125 421.878906 C 71.484375 421.769531 75.703125 421.835938 79.867188 422.433594 C 78.4375 428.160156 71.664062 425.222656 67.417969 425.820312 Z M 118.953125 610.246094 C 116.707031 611.007812 115.945312 610.300781 116.679688 608.113281 C 118.941406 607.335938 119.6875 608.042969 118.953125 610.246094 Z M 122.625 608.015625 C 123.835938 606.574219 127.199219 606.5625 127.632812 608.722656 C 127.117188 611.101562 121.523438 610.816406 122.625 608.015625 Z M 132.613281 608.914062 C 131.429688 610.4375 126.964844 609.511719 128.777344 607.253906 C 129.933594 605.730469 134.449219 606.644531 132.613281 608.914062 Z M 136.175781 607.730469 C 136.855469 605.71875 140.75 605.785156 141.304688 607.878906 C 140.570312 609.851562 136.789062 609.742188 136.175781 607.730469 Z M 152.597656 607.609375 C 150.378906 608.355469 149.5625 607.636719 150.164062 605.445312 C 152.378906 604.671875 153.183594 605.390625 152.597656 607.609375 Z M 720.820312 555.8125 C 722.753906 554.316406 724.261719 557.808594 722.5625 558.925781 C 720.578125 560.460938 719.039062 556.914062 720.820312 555.8125 Z M 735.648438 565.179688 C 731.625 565.125 727.625 564.527344 723.855469 563.101562 C 722.835938 563.398438 720.792969 563.996094 719.773438 564.296875 C 721.078125 559.195312 727.160156 558.066406 730.644531 554.765625 C 727.351562 553.960938 724.074219 553.199219 720.847656 552.25 C 724.902344 549.785156 729.800781 551.171875 734.261719 550.34375 C 733.351562 552.953125 730.929688 554.410156 729.023438 556.234375 C 730.574219 556.097656 733.664062 555.8125 735.203125 555.675781 C 737.105469 558.476562 735.785156 562.050781 735.648438 565.179688 Z M 742.601562 547.71875 C 742.628906 549.9375 742.65625 552.167969 742.683594 554.394531 C 741.515625 553.949219 739.1875 553.0625 738.019531 552.613281 C 738.738281 550.316406 740.601562 548.890625 742.601562 547.71875 Z M 739.378906 565.65625 C 738.464844 562.285156 738.195312 558.789062 739.460938 555.472656 C 740.25 555.511719 741.839844 555.605469 742.628906 555.648438 C 742.589844 558.925781 742.644531 562.1875 742.804688 565.464844 C 741.949219 565.519531 740.234375 565.613281 739.378906 565.65625 Z M 951.875 556.925781 C 952.308594 554.84375 951.722656 552.015625 954.171875 551.050781 C 956.796875 549.269531 960.1875 549.964844 963.191406 549.554688 C 963.234375 551.59375 963.289062 553.648438 963.355469 555.703125 C 959.519531 556.054688 955.695312 556.546875 951.875 556.925781 Z M 980.035156 558.828125 C 974.878906 558.789062 969.777344 557.960938 964.757812 556.871094 C 964.550781 553.050781 964.484375 549.214844 963.804688 545.460938 C 972.582031 540.375 980.6875 533.957031 990.0625 530.027344 C 986.605469 539.585938 982.335938 548.863281 980.035156 558.828125 Z M 1011.285156 558.273438 C 1011.464844 555.960938 1010.933594 553.878906 1009.707031 552.03125 C 1009.734375 553.621094 1009.816406 556.789062 1009.84375 558.367188 C 1009.257812 559.238281 1008.699219 560.121094 1008.144531 561.003906 L 1010.796875 561.507812 C 1009.679688 562.867188 1008.386719 563.332031 1006.917969 562.882812 C 1007.148438 561.277344 1007.558594 559.699219 1007.925781 558.136719 C 1003.476562 558.148438 1006.851562 552.507812 1006.945312 549.921875 C 1009.570312 550.859375 1011.542969 550.042969 1012.863281 547.460938 C 1013.257812 551.253906 1013.355469 555.0625 1013.378906 558.871094 C 1012.863281 558.722656 1011.804688 558.421875 1011.285156 558.273438 Z M 1014.972656 543.804688 C 1012.15625 544.550781 1009.882812 546.238281 1007.777344 548.15625 C 1007.597656 547.1875 1007.246094 545.246094 1007.070312 544.265625 C 1007.941406 544.484375 1009.695312 544.890625 1010.566406 545.09375 C 1010.128906 540.960938 1011.246094 536.867188 1014.714844 534.296875 C 1014.945312 537.453125 1015.039062 540.621094 1014.972656 543.804688 Z M 1020.699219 540.132812 C 1019.164062 540.703125 1017.640625 541.289062 1016.128906 541.871094 C 1016.089844 537.222656 1014.78125 529.320312 1021.230469 528.53125 C 1021.515625 525.527344 1022.945312 522.902344 1025.148438 520.863281 C 1025.652344 526.21875 1025.925781 531.589844 1025.992188 536.988281 C 1023.640625 536.203125 1021.257812 535.65625 1018.835938 535.34375 C 1018.632812 537.179688 1019.257812 538.769531 1020.699219 540.132812 Z M 1030.929688 533.210938 C 1030.007812 533.726562 1028.167969 534.773438 1027.246094 535.289062 C 1025.980469 528.097656 1023.910156 518.890625 1030.644531 513.707031 C 1031.324219 520.167969 1031.964844 526.777344 1030.929688 533.210938 Z M 1033.71875 536.867188 C 1032.78125 530.246094 1032.5625 523.554688 1031.613281 516.945312 C 1031.027344 513.003906 1032.835938 508.882812 1036.644531 507.359375 C 1037 514.851562 1036.851562 522.359375 1036.347656 529.851562 C 1036.796875 531.835938 1037.011719 533.863281 1037.3125 535.902344 C 1036.101562 536.214844 1034.902344 536.542969 1033.71875 536.867188 Z M 1161.144531 471.171875 C 1155.769531 467.730469 1150 464.863281 1144.925781 460.972656 C 1144.941406 460.441406 1144.953125 459.382812 1144.96875 458.851562 C 1150.914062 454.363281 1157.101562 450.039062 1163.757812 446.640625 C 1169.796875 448.570312 1175.117188 452.203125 1180.761719 455.058594 C 1175.359375 461.585938 1167.878906 466.085938 1161.144531 471.171875 Z M 1179.632812 458.921875 C 1179.238281 465.949219 1176.953125 472.777344 1174 479.113281 C 1170.148438 476.882812 1166.382812 474.546875 1162.75 471.988281 C 1168.015625 467.1875 1173.78125 462.972656 1179.632812 458.921875 Z M 1136.601562 462.304688 C 1132.234375 466.289062 1127.171875 469.5 1121.851562 472.082031 C 1119.375 465.746094 1117.5 459.207031 1115.472656 452.71875 C 1125.703125 447.199219 1118.074219 447.019531 1139.0625 459.042969 C 1139.171875 459.789062 1139.375 461.257812 1139.484375 461.992188 C 1141.59375 460.730469 1143.660156 462.15625 1145.457031 463.136719 C 1150.207031 465.992188 1154.925781 468.941406 1159.429688 472.207031 C 1153.226562 477.671875 1146.613281 482.703125 1139.921875 487.546875 C 1138.179688 489.339844 1135.976562 488.074219 1134.453125 486.757812 C 1129.878906 482.988281 1124.179688 479.710938 1122.574219 473.59375 C 1127.8125 470.234375 1132.480469 465.652344 1138.574219 463.898438 C 1137.90625 463.351562 1137.253906 462.824219 1136.601562 462.304688 Z M 1111.253906 431.804688 C 1114.914062 429.4375 1118.683594 427.097656 1122.75 425.496094 C 1129.226562 426.785156 1134.886719 430.933594 1140.53125 434.265625 C 1140.328125 435.136719 1139.933594 436.890625 1139.730469 437.761719 C 1140.652344 437.285156 1142.519531 436.304688 1143.445312 435.828125 C 1149.308594 438.234375 1154.996094 441.1875 1160.367188 444.53125 C 1160.585938 444.96875 1161.019531 445.808594 1161.253906 446.246094 C 1155.089844 450.679688 1148.898438 455.355469 1142.070312 458.660156 C 1135.445312 456.296875 1129.8125 451.6875 1124.097656 447.671875 C 1128.683594 444.164062 1133.949219 441.648438 1138.394531 437.964844 C 1132.859375 440.234375 1128.339844 444.34375 1122.84375 446.640625 C 1114.375 443.703125 1105.683594 434.972656 1111.253906 431.804688 Z M 1108.273438 431.53125 C 1106.234375 426.039062 1104.085938 420.515625 1103.429688 414.65625 C 1109.375 417.078125 1115.28125 419.742188 1120.574219 423.402344 C 1120.53125 423.878906 1120.425781 424.855469 1120.371094 425.332031 C 1116.683594 427.996094 1112.695312 430.347656 1108.273438 431.53125 Z M 1125.675781 424.339844 C 1131.71875 418.96875 1139.363281 415.90625 1146.191406 411.652344 C 1152.191406 414.519531 1158.683594 416.585938 1164.191406 420.394531 C 1162.484375 423.3125 1147.09375 432.3125 1143.484375 433.722656 C 1137.28125 431.125 1131.511719 427.628906 1125.675781 424.339844 Z M 1145.867188 434.117188 C 1152.585938 429.492188 1159.660156 425.441406 1166.570312 421.144531 C 1172.640625 423.808594 1178.925781 426.105469 1184.488281 429.792969 C 1178.09375 435.273438 1171.074219 439.949219 1163.988281 444.449219 C 1157.824219 441.242188 1151.074219 438.847656 1145.867188 434.117188 Z M 1169.578125 419.320312 C 1192.78125 402.84375 1199.425781 400.542969 1189.304688 426.894531 C 1188.722656 427.234375 1187.578125 427.929688 1187.007812 428.269531 C 1180.992188 425.863281 1174.121094 424.175781 1169.578125 419.320312 Z M 1193.144531 384.847656 C 1193.535156 406.039062 1194.710938 400.992188 1190.015625 404.566406 C 1176.992188 398.921875 1173.898438 398.792969 1173.28125 396.121094 C 1179.523438 391.796875 1186.191406 387.960938 1193.144531 384.847656 Z M 1180.707031 402.171875 C 1182.640625 403.546875 1186.542969 403.585938 1186.773438 406.414062 C 1165.21875 422.039062 1167.203125 419.324219 1162.804688 417.714844 C 1157.972656 415.59375 1153.199219 413.351562 1148.574219 410.835938 C 1154.109375 406.550781 1160.4375 403.453125 1166.421875 399.847656 C 1171.019531 396.339844 1176.175781 400.703125 1180.707031 402.171875 Z M 1097.390625 367.539062 C 1104.859375 370.519531 1160.75 393.488281 1167.824219 397.289062 C 1162.898438 401.328125 1157.074219 403.996094 1151.742188 407.421875 C 1145.527344 410.960938 1149.863281 412.730469 1099.035156 387.351562 C 1096.464844 386.289062 1096.96875 383.296875 1097.007812 381.09375 C 1097.324219 376.566406 1095.675781 371.929688 1097.390625 367.539062 Z M 1097.703125 389.007812 C 1104.804688 391.683594 1140.390625 408.257812 1143.675781 411.039062 C 1138.898438 415.703125 1132.492188 418.328125 1126.820312 421.753906 C 1123.484375 424.269531 1119.933594 421.320312 1116.914062 419.824219 C 1112.097656 416.820312 1106.941406 414.398438 1102.207031 411.269531 C 1097.40625 405 1097.078125 396.609375 1097.703125 389.007812 Z M 1103.933594 544.320312 C 1102.832031 534.789062 1103.144531 525.1875 1103.746094 515.640625 C 1104.289062 516.078125 1105.40625 516.933594 1105.949219 517.367188 C 1106.261719 525.800781 1106.453125 534.296875 1106.453125 542.730469 C 1105.828125 543.125 1104.5625 543.925781 1103.933594 544.320312 Z M 1106.234375 510.746094 C 1105.648438 512.511719 1104.792969 514.128906 1102.914062 514.714844 C 1102.628906 510.363281 1102.765625 506.027344 1103.144531 501.703125 C 1106.421875 506.46875 1106.554688 506.816406 1108.546875 510.390625 C 1107.960938 510.484375 1106.804688 510.664062 1106.234375 510.746094 Z M 1109.117188 543.246094 C 1108.96875 532.898438 1108.015625 522.519531 1109.214844 512.199219 C 1109.894531 511.96875 1111.269531 511.519531 1111.949219 511.289062 C 1111.960938 521.9375 1112.453125 532.570312 1112.558594 543.21875 C 1111.703125 543.230469 1109.976562 543.230469 1109.117188 543.246094 Z M 1120.832031 447.742188 C 1118.792969 449.007812 1116.738281 450.203125 1114.628906 451.320312 C 1113.960938 448.613281 1113.484375 445.867188 1113.226562 443.105469 C 1115.878906 444.425781 1118.398438 446 1120.832031 447.742188 Z M 1117.851562 542.035156 C 1117.0625 541.941406 1115.5 541.761719 1114.710938 541.667969 C 1114.4375 532.9375 1114.640625 524.207031 1114.085938 515.492188 C 1116.398438 516.511719 1118.546875 518.386719 1117.976562 521.203125 C 1117.933594 528.136719 1118.207031 535.101562 1117.851562 542.035156 Z M 1119.976562 521.800781 C 1120.765625 522.316406 1122.34375 523.335938 1123.132812 523.855469 C 1123.636719 527.933594 1123.976562 532.164062 1123.445312 536.269531 C 1122.75 536.800781 1121.363281 537.847656 1120.667969 538.363281 C 1120.316406 532.84375 1119.8125 527.335938 1119.976562 521.800781 Z M 1123.347656 538.71875 C 1123.554688 540.402344 1123.6875 542.101562 1123.757812 543.816406 C 1120.21875 544.441406 1120.355469 539.601562 1123.347656 538.71875 Z M 1126.164062 543.964844 C 1126.65625 538.773438 1126.492188 533.523438 1127.226562 528.382812 C 1127.839844 530.328125 1128.667969 532.394531 1129.390625 534.351562 C 1129.457031 537.589844 1129.621094 540.839844 1129.703125 544.089844 C 1128.816406 544.046875 1127.050781 543.992188 1126.164062 543.964844 Z M 1128.832031 484.71875 C 1131.007812 486.511719 1135.390625 487.625 1135.347656 491.066406 C 1131.308594 495.230469 1129.023438 487.777344 1128.832031 484.71875 Z M 1134.941406 553.320312 C 1133.933594 547.816406 1131.8125 542.539062 1131.511719 536.921875 C 1137.988281 539.4375 1135.363281 548.019531 1134.941406 553.320312 Z M 1140.03125 553.0625 C 1138.097656 554.503906 1136.585938 550.996094 1138.136719 549.8125 C 1140.042969 548.34375 1141.554688 551.851562 1140.03125 553.0625 Z M 1145.308594 513.886719 C 1140.925781 507.699219 1137.226562 501.046875 1133.132812 494.671875 C 1134.640625 493.460938 1136.164062 492.265625 1137.757812 491.121094 C 1143.730469 496.195312 1150.667969 500.234375 1155.933594 506.109375 C 1153.402344 509.113281 1150.546875 511.875 1147.402344 514.210938 C 1146.871094 514.128906 1145.824219 513.96875 1145.308594 513.886719 Z M 1153.132812 525.089844 C 1150.261719 524.222656 1148.980469 520.03125 1147.527344 517.394531 C 1149.320312 513.476562 1153.089844 510.882812 1156.3125 508.1875 C 1158.164062 506.394531 1160.042969 509.195312 1161.632812 510.011719 C 1158.84375 515.054688 1156.667969 520.496094 1153.132812 525.089844 Z M 1161.550781 507.5625 C 1160.980469 506.949219 1159.851562 505.714844 1159.28125 505.101562 C 1161.335938 503.265625 1163.292969 500.980469 1166.246094 500.734375 C 1164.898438 503.074219 1164.640625 506.992188 1161.550781 507.5625 Z M 1158.109375 504.21875 C 1155.445312 504.199219 1140.292969 490.980469 1139.132812 489.925781 C 1146.289062 484.269531 1153.105469 477.917969 1161.0625 473.414062 C 1165.539062 475.605469 1170.328125 477.863281 1173.753906 481.574219 C 1171.191406 491.414062 1170.617188 494.222656 1158.109375 504.21875 Z M 1170.980469 557.59375 C 1170.054688 557.265625 1169.144531 556.953125 1168.257812 556.640625 C 1168.164062 551.566406 1167.933594 546.507812 1167.988281 541.4375 C 1169.007812 541.097656 1170.027344 540.757812 1171.074219 540.445312 C 1171.019531 546.15625 1170.953125 551.867188 1170.980469 557.59375 Z M 1175.753906 557.835938 C 1172.597656 553.910156 1173.214844 540.171875 1173.457031 535.15625 C 1174.84375 534.449219 1176.230469 533.726562 1177.648438 533.019531 C 1176.53125 541.273438 1177.429688 549.625 1175.753906 557.835938 Z M 1180.871094 556.964844 C 1175.914062 548.070312 1179.300781 538.425781 1178.285156 529.960938 C 1179.78125 529.035156 1181.308594 528.191406 1182.898438 527.402344 C 1182.003906 539.039062 1182.792969 538.964844 1180.871094 556.964844 Z M 1184.476562 552.371094 C 1184.230469 544.292969 1182.953125 536.242188 1183.769531 528.164062 C 1187.695312 529.328125 1186.714844 530.09375 1187.332031 552.382812 C 1186.625 552.371094 1185.183594 552.371094 1184.476562 552.371094 Z M 1183.265625 524.058594 C 1184.164062 522.628906 1185.089844 521.214844 1186.027344 519.828125 C 1186.667969 522.074219 1186.707031 524.425781 1186.667969 526.777344 C 1185.496094 525.867188 1184.382812 524.96875 1183.265625 524.058594 Z M 1182.136719 453.316406 C 1176.777344 451.523438 1171.726562 448.855469 1166.953125 445.878906 C 1166.898438 445.484375 1166.777344 444.683594 1166.707031 444.289062 C 1173.441406 439.203125 1180.339844 434.210938 1187.890625 430.363281 C 1187.007812 438.25 1184.054688 445.675781 1182.136719 453.316406 Z M 1191.320312 513.558594 C 1191.523438 517.066406 1191.46875 520.589844 1191.671875 524.097656 C 1192.285156 519.910156 1191.0625 515.136719 1193.808594 511.535156 C 1194.351562 517.800781 1194.054688 524.097656 1194.625 530.367188 C 1192.855469 530.191406 1191.140625 530.027344 1189.414062 529.851562 C 1189.90625 524.492188 1186.871094 517.84375 1191.320312 513.558594 Z M 1191.144531 557.851562 C 1189.769531 551.703125 1189.585938 545.207031 1189.484375 537.234375 C 1189.183594 535.628906 1190.136719 534.324219 1191.019531 533.128906 C 1191.945312 534.707031 1193.15625 536.039062 1194.640625 537.125 C 1194.652344 541.34375 1194.625 545.558594 1194.667969 549.785156 C 1193.863281 550.480469 1192.257812 551.878906 1191.457031 552.574219 C 1192.980469 554.355469 1193.035156 556.21875 1191.144531 557.851562 Z M 1468.902344 512.363281 C 1468.65625 514.308594 1468.453125 516.265625 1468.273438 518.238281 C 1395.191406 490.125 1332.773438 463.78125 1259.574219 422.679688 C 1258.828125 416.777344 1259.101562 410.710938 1260.105469 404.839844 C 1276.660156 411.851562 1451.335938 490.085938 1467.515625 497.460938 C 1468.371094 499.527344 1469.390625 501.550781 1470.75 503.386719 C 1470.628906 506.433594 1470.980469 509.832031 1468.902344 512.363281 Z M 1469.1875 529.019531 C 1466.976562 527.972656 1409.164062 500.140625 1405.3125 496.289062 C 1426.929688 503.414062 1447.472656 513.546875 1468.832031 521.460938 C 1469.390625 523.933594 1469.40625 526.492188 1469.1875 529.019531 Z M 1317.328125 456.28125 C 1299.410156 450.339844 1282.28125 442.207031 1264.730469 435.273438 C 1260.785156 434.0625 1261.207031 429.355469 1260.839844 426.105469 C 1272.566406 430.824219 1283.097656 437.980469 1294.511719 443.363281 C 1302.007812 447.851562 1310.785156 450.339844 1317.328125 456.28125 Z M 1258.582031 508.773438 C 1259.480469 510.105469 1260.800781 511.355469 1260.691406 513.136719 C 1261.058594 519.542969 1260.949219 526.003906 1260.351562 532.394531 C 1259.003906 530.734375 1257.984375 528.816406 1258.242188 526.628906 C 1258.226562 520.683594 1257.753906 514.6875 1258.582031 508.773438 Z M 1261.546875 553.921875 C 1259.386719 554.695312 1258.636719 553.949219 1259.304688 551.664062 C 1261.410156 550.886719 1262.175781 551.636719 1261.546875 553.921875 Z M 1261.441406 549.1875 C 1261.425781 545.066406 1261.464844 540.949219 1261.125 536.839844 C 1260.691406 541.355469 1260.964844 545.882812 1260.8125 550.414062 C 1256.570312 546.617188 1259.535156 539.859375 1258.675781 534.855469 C 1260.214844 535.765625 1261.738281 536.675781 1263.332031 537.5625 C 1263.332031 541.519531 1263.34375 545.488281 1263.425781 549.445312 Z M 1263.125 531.589844 L 1261.234375 531.511719 C 1261.914062 524.929688 1260.230469 517.964844 1262.703125 511.683594 C 1264.296875 518.222656 1263.167969 524.957031 1263.125 531.589844 Z M 1264.199219 514.945312 C 1267.453125 516.835938 1265.96875 521.160156 1266.59375 524.277344 C 1266.773438 522.753906 1267.125 519.691406 1267.300781 518.171875 C 1270.90625 523.023438 1268.226562 529.550781 1268.8125 535.15625 L 1266.839844 535.128906 C 1266.785156 533.046875 1266.730469 530.964844 1266.691406 528.898438 C 1266.378906 531.101562 1266.078125 533.277344 1265.777344 535.480469 C 1262.5 529.292969 1264.910156 521.707031 1264.199219 514.945312 Z M 1268.894531 454.160156 C 1281.875 460.402344 1293.644531 468.929688 1306.242188 475.933594 C 1306.160156 478.242188 1306.0625 480.554688 1305.96875 482.878906 C 1294.976562 477.957031 1283.902344 473.128906 1273.140625 467.730469 C 1270.023438 464.15625 1269.777344 458.703125 1268.894531 454.160156 Z M 1268.757812 547.746094 C 1267.425781 548.425781 1266.078125 549.066406 1264.730469 549.664062 C 1263.957031 546.074219 1264.308594 542.402344 1264.378906 538.773438 C 1265.003906 538.828125 1266.242188 538.933594 1266.867188 538.988281 C 1266.785156 539.738281 1266.597656 541.246094 1266.515625 541.996094 C 1268.460938 542.183594 1270.417969 542.375 1272.40625 542.578125 C 1272.460938 545.066406 1272.5 547.570312 1272.527344 550.070312 C 1271.25 549.296875 1269.996094 548.523438 1268.757812 547.746094 Z M 1274.132812 535.65625 C 1273.003906 536.570312 1271.875 537.453125 1270.730469 538.308594 C 1268.363281 532.84375 1269.859375 526.695312 1270.023438 520.957031 C 1271.480469 523.203125 1272.703125 525.582031 1273.957031 527.960938 C 1273.304688 528.789062 1271.996094 530.4375 1271.34375 531.265625 L 1274.324219 530.519531 C 1274.253906 532.230469 1274.1875 533.929688 1274.132812 535.65625 Z M 1277.941406 549.582031 C 1275.847656 551.1875 1274.078125 547.339844 1275.886719 546.0625 C 1277.96875 544.441406 1279.617188 548.25 1277.941406 549.582031 Z M 1286.976562 547.691406 C 1286.949219 546.523438 1286.878906 544.183594 1286.839844 543.015625 C 1285.765625 543.558594 1283.601562 544.632812 1282.527344 545.164062 C 1282.28125 544.835938 1281.777344 544.199219 1281.535156 543.871094 C 1281.152344 541.84375 1281.984375 538.324219 1278.757812 539.410156 L 1277.015625 542.023438 C 1273.902344 537.820312 1275.601562 531.851562 1275.167969 526.941406 C 1277.414062 529.019531 1278.664062 531.863281 1280.324219 534.40625 C 1281.097656 534.40625 1282.636719 534.433594 1283.398438 534.433594 C 1283.453125 537.042969 1283.507812 539.640625 1283.574219 542.253906 C 1285.425781 542.332031 1287.277344 542.441406 1289.167969 542.550781 C 1289.277344 544.304688 1289.398438 546.046875 1289.546875 547.8125 C 1288.90625 547.789062 1287.613281 547.734375 1286.976562 547.691406 Z M 1282.988281 492.847656 C 1287.867188 493.828125 1306.328125 509.324219 1310.347656 513.355469 C 1309.695312 514.730469 1309.070312 516.117188 1308.472656 517.503906 C 1307.847656 517.585938 1306.566406 517.75 1305.929688 517.832031 C 1297.601562 513.039062 1292.101562 514.042969 1282.988281 492.847656 Z M 1312.445312 513.695312 C 1319.394531 519.558594 1327.152344 524.480469 1333.679688 530.84375 C 1329.03125 530.367188 1315.800781 524.390625 1308.539062 517.410156 C 1309.777344 516.128906 1311.082031 514.878906 1312.445312 513.695312 Z M 1351.203125 554.734375 C 1349.054688 555.390625 1348.347656 554.574219 1349.082031 552.316406 C 1351.203125 551.648438 1351.910156 552.453125 1351.203125 554.734375 Z M 1351.027344 547 C 1352.144531 552.589844 1345.300781 551.582031 1341.761719 551.675781 C 1341.75 550.589844 1341.707031 548.425781 1341.695312 547.339844 C 1339.410156 547.472656 1338.714844 548.929688 1339.585938 551.730469 C 1335.707031 551.214844 1332.402344 552.777344 1329.792969 555.523438 C 1330.242188 554.992188 1331.136719 553.933594 1331.574219 553.402344 C 1331.136719 551.28125 1330.6875 549.175781 1330.320312 547.054688 C 1328.1875 547.707031 1326.242188 548.65625 1324.894531 550.453125 C 1322.242188 552.015625 1319.300781 552.980469 1316.242188 552.234375 C 1316.566406 551.105469 1316.90625 549.988281 1317.273438 548.875 C 1311.382812 545.257812 1312.078125 537.371094 1311.667969 531.375 C 1309.644531 530.898438 1307.644531 530.421875 1305.644531 530 C 1302.867188 525.976562 1299.996094 521.910156 1298.785156 517.09375 C 1301.464844 518.265625 1304.433594 519.148438 1306.71875 521.105469 C 1306.960938 524.535156 1307.355469 527.917969 1311.167969 529.210938 C 1311.628906 527.496094 1312.105469 525.785156 1312.609375 524.085938 C 1326.472656 531.359375 1340.539062 538.324219 1353.925781 546.453125 Z M 1311.628906 510.378906 C 1310.539062 505.742188 1309.179688 501.15625 1308.605469 496.425781 C 1308.632812 499.171875 1308.6875 501.933594 1308.714844 504.691406 C 1307.898438 505.058594 1306.253906 505.792969 1305.4375 506.160156 C 1298.089844 500.804688 1291.097656 494.996094 1283.804688 489.585938 C 1277.804688 485.601562 1275.425781 478.121094 1274.390625 471.363281 C 1284.742188 474.4375 1294.144531 479.996094 1304.046875 484.269531 C 1309.191406 485.558594 1304.035156 493.910156 1309.410156 494.453125 C 1311.492188 493.378906 1310.523438 490.035156 1311.394531 488.101562 C 1320.101562 491.617188 1382.273438 518.441406 1418.65625 544.511719 C 1401.746094 545.734375 1384.808594 545.761719 1367.871094 546.414062 C 1358.816406 547.722656 1349.496094 540.59375 1311.628906 510.378906 Z M 1310.199219 479.441406 C 1315.375 480.910156 1336.117188 493.71875 1340.0625 496.996094 C 1334.621094 496.886719 1330.050781 493.679688 1325.179688 491.707031 C 1320.320312 489.328125 1315 487.707031 1310.621094 484.484375 C 1310.511719 483.234375 1310.308594 480.707031 1310.199219 479.441406 Z M 1368.074219 548.34375 C 1369.339844 545.136719 1374.167969 547.488281 1376.890625 546.753906 C 1376.890625 551.417969 1369.230469 552.628906 1368.074219 548.34375 Z M 1381.449219 550.085938 C 1379.175781 544.945312 1386.808594 547.230469 1389.613281 547.011719 C 1389.800781 547.882812 1390.183594 549.636719 1390.375 550.507812 C 1387.378906 550.492188 1384.386719 550.601562 1381.449219 550.085938 Z M 1393.257812 549.992188 C 1391.039062 544.78125 1399.761719 547.242188 1402.632812 546.441406 C 1401.1875 550.507812 1396.820312 550.480469 1393.257812 549.992188 Z M 1407.40625 549.691406 C 1407.109375 548.535156 1406.835938 547.394531 1406.589844 546.265625 C 1410.195312 546.265625 1415.554688 544.292969 1416.710938 549.121094 C 1413.609375 549.460938 1410.496094 549.597656 1407.40625 549.691406 Z M 1418.863281 549.066406 C 1416.113281 545.3125 1422.808594 546.074219 1424.738281 546.875 C 1423.828125 549.582031 1421.148438 549.460938 1418.863281 549.066406 Z M 1421.40625 542.632812 C 1415.636719 538.988281 1409.175781 536.230469 1404.332031 531.304688 C 1412.140625 532.925781 1418.78125 537.535156 1425.988281 540.6875 C 1427.8125 541.289062 1429.011719 542.675781 1429.59375 544.539062 C 1426.726562 544.59375 1423.800781 544.304688 1421.40625 542.632812 Z M 1433.8125 548.875 C 1433.757812 548.046875 1433.636719 546.386719 1433.570312 545.558594 C 1436.042969 545.898438 1438.519531 546.375 1440.929688 547.148438 C 1439.078125 549.1875 1436.222656 548.605469 1433.8125 548.875 Z M 1469.226562 542.539062 C 1466.980469 543.179688 1464.667969 543.476562 1462.425781 543.925781 C 1464.058594 544.320312 1465.664062 544.660156 1467.363281 545.042969 C 1467.621094 545.734375 1468.140625 547.109375 1468.398438 547.789062 C 1465.269531 547.625 1461.90625 548.425781 1458.996094 547.082031 C 1459.296875 546.15625 1459.878906 544.320312 1460.179688 543.394531 C 1457.484375 543.503906 1454.792969 543.601562 1452.140625 543.65625 C 1452.546875 544.59375 1453.390625 546.457031 1453.800781 547.378906 C 1451.800781 547.597656 1449.800781 547.542969 1447.839844 547.203125 C 1448.316406 546.332031 1449.269531 544.621094 1449.746094 543.75 C 1440.320312 543.609375 1448.433594 548.03125 1391.925781 521.773438 C 1366.175781 509.050781 1392.90625 526.3125 1310.621094 476.285156 C 1310.023438 474.207031 1310.921875 471.066406 1308.296875 470.25 C 1306.894531 470.96875 1305.535156 471.746094 1304.199219 472.5625 C 1292.078125 465.460938 1280.039062 458.199219 1268.105469 450.789062 C 1265.113281 447.160156 1264.871094 441.949219 1263.972656 437.488281 C 1357.933594 473.414062 1383.5625 489.035156 1461.472656 528.207031 C 1468.742188 531.871094 1466.980469 530.886719 1471.253906 535.453125 L 1469.214844 535.496094 C 1469.226562 537.832031 1469.347656 540.1875 1469.226562 542.539062 Z M 1474.371094 546.617188 C 1473.746094 543.097656 1478.628906 544.90625 1480.574219 544.117188 C 1479.484375 546.507812 1476.816406 548.792969 1474.371094 546.617188 Z M 1485.851562 543.136719 C 1482.015625 542.5 1478.125 542.890625 1474.289062 542.796875 C 1474.015625 540.375 1473.757812 537.957031 1473.566406 535.550781 C 1480.460938 536.476562 1489.355469 541.6875 1491.199219 547.136719 C 1488.375 546.109375 1484.867188 548.855469 1485.851562 543.136719 Z M 1474.328125 531.496094 C 1472.953125 529.292969 1473.59375 526.382812 1473.132812 523.949219 C 1479.324219 525.472656 1484.980469 528.503906 1490.941406 530.734375 C 1491.105469 533.796875 1491.171875 536.855469 1491.226562 539.929688 C 1485.5 537.328125 1479.59375 534.964844 1474.328125 531.496094 Z M 1490.574219 511.058594 C 1490.640625 516.496094 1490.980469 521.910156 1490.96875 527.347656 C 1484.914062 525.457031 1479.078125 522.996094 1473.28125 520.46875 C 1474.261719 513.503906 1469.785156 506.339844 1473.347656 499.796875 C 1480.152344 502.84375 1487.308594 505.304688 1493.320312 509.859375 C 1492.628906 510.160156 1491.265625 510.757812 1490.574219 511.058594 Z M 1493.878906 486.785156 C 1492.367188 486.253906 1490.886719 485.695312 1489.445312 485.125 C 1489.28125 489.460938 1488.980469 493.867188 1490.519531 498.03125 C 1490.394531 499.429688 1490.152344 500.816406 1489.785156 502.175781 C 1490.925781 501.253906 1492.152344 500.410156 1493.457031 499.660156 C 1494.410156 502.652344 1490.546875 502.597656 1489.117188 503.984375 C 1483.878906 501.566406 1478.355469 499.742188 1473.308594 496.941406 C 1471.582031 491.039062 1474.273438 484.335938 1471.472656 478.761719 C 1470.640625 478.773438 1468.980469 478.8125 1468.164062 478.839844 C 1468.113281 484.117188 1468.53125 489.378906 1468.503906 494.65625 C 1459.285156 490.871094 1280.367188 412.429688 1259.859375 401.667969 C 1259.574219 395.941406 1260.066406 390.246094 1260.527344 384.546875 C 1265.816406 385.863281 1488.148438 476.15625 1489.199219 476.609375 C 1489.335938 478.894531 1489.472656 481.191406 1489.675781 483.492188 C 1489.90625 481.191406 1490.027344 478.867188 1490.289062 476.582031 C 1494.886719 478.1875 1494.042969 482.867188 1493.878906 486.785156 Z M 1491.472656 496.902344 C 1494.546875 495.378906 1492.722656 501.390625 1491.390625 497.988281 Z M 1490.683594 493.652344 L 1490.683594 492.726562 C 1491.160156 492.726562 1492.125 492.710938 1492.601562 492.710938 L 1492.871094 493.789062 C 1492.328125 493.746094 1491.226562 493.679688 1490.683594 493.652344 Z M 1489.839844 490.402344 C 1490.289062 489.667969 1491.199219 488.183594 1491.648438 487.4375 C 1492.097656 488.171875 1493.023438 489.640625 1493.472656 490.375 C 1492.261719 491.625 1491.050781 491.636719 1489.839844 490.402344 Z M 1495.144531 485.328125 C 1494.164062 483.613281 1494.109375 481.261719 1494.898438 479.496094 C 1496.832031 479.875 1497.28125 485.03125 1495.144531 485.328125 Z M 1532.597656 477.535156 C 1530.21875 477.441406 1530.175781 473.417969 1532.613281 473.402344 C 1534.925781 473.472656 1534.980469 477.550781 1532.597656 477.535156 Z M 1543.796875 482.9375 C 1542 482.71875 1541.769531 479.523438 1543.671875 479.304688 C 1545.429688 479.441406 1545.660156 482.746094 1543.796875 482.9375 Z M 1544.558594 477.144531 C 1542.53125 478.636719 1540.515625 475.101562 1542.257812 473.703125 C 1544.246094 472.136719 1546.269531 475.742188 1544.558594 477.144531 Z M 1548.667969 484.457031 C 1546.460938 481.574219 1546.910156 477.769531 1546.925781 474.382812 C 1547.578125 473.945312 1548.871094 473.0625 1549.523438 472.628906 C 1549.414062 476.570312 1549.304688 480.542969 1548.667969 484.457031 Z M 1579.578125 541.492188 C 1582.636719 541.519531 1585.710938 541.640625 1588.800781 541.96875 C 1586.746094 544.917969 1580.394531 545.800781 1579.578125 541.492188 Z M 1557.304688 533.183594 C 1556.148438 523.363281 1556.191406 513.425781 1555.929688 503.550781 C 1567.074219 507.386719 1578.214844 511.5625 1588.828125 516.6875 C 1590.203125 524.125 1589.453125 531.835938 1589.902344 539.382812 C 1579.273438 540.066406 1568.074219 542.402344 1557.304688 533.183594 Z M 1628.90625 472.328125 C 1626.746094 473.117188 1625.996094 472.371094 1626.648438 470.097656 C 1628.773438 469.308594 1629.519531 470.042969 1628.90625 472.328125 Z M 1642.742188 473.484375 L 1642.023438 474.191406 C 1640.160156 474.84375 1640.078125 477.140625 1638.933594 478.488281 C 1638.144531 475.429688 1637.613281 472.300781 1637.316406 469.171875 C 1639.449219 467.472656 1639.601562 470.914062 1640.824219 471.769531 C 1641.410156 471.007812 1642.578125 469.5 1643.164062 468.738281 C 1643.058594 469.921875 1642.851562 472.300781 1642.742188 473.484375 Z M 1645.507812 474.898438 C 1645.535156 475.511719 1645.34375 479.5625 1644.089844 477.589844 C 1643.34375 475.089844 1643.34375 472.125 1644.527344 469.757812 C 1646.308594 470.113281 1645.152344 473.5 1645.507812 474.898438 Z M 1645.507812 474.898438 " fill-opacity="1" fill-rule="nonzero"/><path fill="rgb(98.81897%, 75.289917%, 79.60968%)" d="M 1271.277344 551.417969 C 1269.277344 555.578125 1275.777344 551.5 1271.277344 551.417969 " fill-opacity="1" fill-rule="nonzero"/><path fill="rgb(98.81897%, 75.289917%, 79.60968%)" d="M 1282.429688 550.996094 C 1280.472656 555.160156 1286.90625 551.09375 1282.429688 550.996094 " fill-opacity="1" fill-rule="nonzero"/><path fill="rgb(98.81897%, 75.289917%, 79.60968%)" d="M 1381.542969 552.667969 C 1379.378906 556.707031 1386.035156 553.023438 1381.542969 552.667969 " fill-opacity="1" fill-rule="nonzero"/><path fill="rgb(98.81897%, 75.289917%, 79.60968%)" d="M 948.472656 555.390625 C 948.59375 559.890625 952.582031 553.363281 948.472656 555.390625 " fill-opacity="1" fill-rule="nonzero"/><path fill="rgb(98.81897%, 75.289917%, 79.60968%)" d="M 267.492188 564.59375 C 267.722656 569.109375 271.53125 562.433594 267.492188 564.59375 " fill-opacity="1" fill-rule="nonzero"/><path fill="rgb(98.81897%, 75.289917%, 79.60968%)" d="M 286.769531 505.101562 C 287.410156 505.890625 287.410156 505.890625 286.769531 505.101562 Z M 286.769531 505.101562 " fill-opacity="1" fill-rule="nonzero"/><g clip-path="url(#clip-0)"><path fill="rgb(100%, 67.449951%, 73.329163%)" d="M 346.476562 505.515625 C 97.53125 505.515625 -106.148438 668.527344 -106.148438 867.765625 C -106.148438 1067.003906 97.53125 1230.015625 346.476562 1230.015625 C 595.417969 1230.015625 799.097656 1067.003906 799.097656 867.765625 C 799.097656 668.527344 595.417969 505.515625 346.476562 505.515625 Z M 346.476562 505.515625 " fill-opacity="1" fill-rule="nonzero"/></g><path fill="rgb(98.81897%, 81.17981%, 84.309387%)" d="M 251.910156 561.074219 C 248.628906 567.355469 251.074219 575.105469 257.359375 578.378906 C 262.90625 581.269531 269.59375 579.707031 273.34375 574.980469 L 259 547.480469 Z M 251.910156 561.074219 " fill-opacity="1" fill-rule="nonzero"/><path fill="rgb(98.81897%, 81.17981%, 84.309387%)" d="M 319.097656 487.769531 L 326.191406 490.183594 L 313.398438 562.152344 L 319.863281 574.542969 C 322.421875 579.449219 322.914062 585.058594 321.253906 590.335938 C 320.269531 593.453125 318.59375 596.222656 316.382812 598.503906 C 317.4375 599.019531 318.570312 599.40625 319.78125 599.617188 C 326.761719 600.859375 333.425781 596.210938 334.667969 589.230469 L 352.675781 487.914062 L 372.5625 429.535156 L 452.921875 390.824219 C 457.050781 388.832031 458.789062 383.871094 456.796875 379.738281 C 454.804688 375.609375 449.839844 373.875 445.707031 375.867188 L 368.996094 412.820312 L 332.425781 400.378906 L 294.214844 324.316406 C 292.15625 320.222656 287.164062 318.566406 283.0625 320.625 C 278.960938 322.683594 277.308594 327.675781 279.367188 331.773438 L 319.390625 411.441406 L 299.507812 469.816406 L 282.375 502.664062 L 296.855469 530.421875 Z M 319.097656 487.769531 " fill-opacity="1" fill-rule="nonzero"/><path fill="rgb(98.81897%, 81.17981%, 84.309387%)" d="M 367.6875 356.816406 C 368.410156 357.0625 369.121094 357.34375 369.816406 357.660156 C 370.515625 357.976562 371.195312 358.324219 371.855469 358.707031 C 372.519531 359.089844 373.160156 359.507812 373.78125 359.953125 C 374.402344 360.398438 375 360.875 375.578125 361.378906 C 376.152344 361.882812 376.699219 362.414062 377.222656 362.972656 C 377.746094 363.53125 378.238281 364.113281 378.703125 364.722656 C 379.167969 365.328125 379.605469 365.957031 380.007812 366.609375 C 380.410156 367.257812 380.78125 367.925781 381.121094 368.613281 C 381.457031 369.296875 381.761719 370 382.03125 370.714844 C 382.296875 371.429688 382.53125 372.160156 382.730469 372.898438 C 382.925781 373.636719 383.085938 374.382812 383.210938 375.136719 C 383.335938 375.890625 383.421875 376.652344 383.472656 377.414062 C 383.519531 378.175781 383.53125 378.941406 383.507812 379.707031 C 383.480469 380.46875 383.417969 381.230469 383.316406 381.988281 C 383.214844 382.746094 383.078125 383.5 382.902344 384.242188 C 382.730469 384.988281 382.519531 385.722656 382.273438 386.445312 C 382.027344 387.171875 381.746094 387.878906 381.429688 388.578125 C 381.113281 389.273438 380.761719 389.953125 380.378906 390.613281 C 379.996094 391.277344 379.582031 391.917969 379.132812 392.539062 C 378.6875 393.160156 378.210938 393.757812 377.707031 394.332031 C 377.203125 394.90625 376.667969 395.457031 376.109375 395.976562 C 375.550781 396.5 374.96875 396.992188 374.359375 397.457031 C 373.753906 397.921875 373.125 398.359375 372.472656 398.761719 C 371.824219 399.164062 371.15625 399.535156 370.46875 399.871094 C 369.78125 400.210938 369.082031 400.511719 368.363281 400.78125 C 367.648438 401.050781 366.921875 401.28125 366.179688 401.480469 C 365.441406 401.675781 364.695312 401.839844 363.941406 401.960938 C 363.183594 402.085938 362.425781 402.171875 361.660156 402.222656 C 360.898438 402.269531 360.132812 402.28125 359.367188 402.257812 C 358.605469 402.230469 357.84375 402.167969 357.082031 402.066406 C 356.324219 401.96875 355.574219 401.828125 354.828125 401.65625 C 354.082031 401.480469 353.347656 401.269531 352.625 401.023438 C 351.898438 400.777344 351.1875 400.496094 350.492188 400.179688 C 349.796875 399.863281 349.117188 399.515625 348.453125 399.132812 C 347.792969 398.75 347.148438 398.332031 346.527344 397.886719 C 345.90625 397.441406 345.308594 396.964844 344.734375 396.460938 C 344.160156 395.957031 343.609375 395.425781 343.085938 394.867188 C 342.566406 394.308594 342.070312 393.726562 341.605469 393.117188 C 341.140625 392.511719 340.707031 391.882812 340.300781 391.230469 C 339.898438 390.582031 339.527344 389.914062 339.191406 389.226562 C 338.851562 388.542969 338.550781 387.839844 338.28125 387.125 C 338.011719 386.410156 337.777344 385.679688 337.582031 384.941406 C 337.382812 384.203125 337.222656 383.457031 337.097656 382.703125 C 336.976562 381.949219 336.886719 381.1875 336.839844 380.425781 C 336.789062 379.664062 336.777344 378.898438 336.804688 378.132812 C 336.828125 377.371094 336.890625 376.609375 336.992188 375.851562 C 337.09375 375.09375 337.230469 374.339844 337.40625 373.597656 C 337.578125 372.851562 337.789062 372.117188 338.039062 371.394531 C 338.285156 370.667969 338.566406 369.960938 338.882812 369.261719 C 339.199219 368.566406 339.546875 367.886719 339.929688 367.226562 C 340.316406 366.5625 340.730469 365.921875 341.175781 365.300781 C 341.621094 364.679688 342.097656 364.082031 342.601562 363.507812 C 343.109375 362.933594 343.640625 362.382812 344.199219 361.863281 C 344.757812 361.339844 345.339844 360.847656 345.949219 360.382812 C 346.554688 359.917969 347.183594 359.480469 347.835938 359.078125 C 348.484375 358.675781 349.152344 358.304688 349.839844 357.96875 C 350.527344 357.628906 351.226562 357.328125 351.945312 357.058594 C 352.660156 356.789062 353.390625 356.554688 354.128906 356.359375 C 354.867188 356.160156 355.613281 356 356.371094 355.878906 C 357.125 355.753906 357.882812 355.667969 358.648438 355.617188 C 359.410156 355.570312 360.175781 355.558594 360.941406 355.582031 C 361.707031 355.609375 362.46875 355.671875 363.226562 355.773438 C 363.984375 355.871094 364.738281 356.007812 365.480469 356.183594 C 366.226562 356.359375 366.960938 356.570312 367.6875 356.816406 Z M 367.6875 356.816406 " fill-opacity="1" fill-rule="nonzero"/><path fill="rgb(98.81897%, 81.17981%, 84.309387%)" d="M 55.113281 355.21875 L 159.515625 405.511719 L 185.355469 481.363281 L 208.75 612.996094 C 210.363281 622.0625 219.023438 628.101562 228.089844 626.496094 C 237.164062 624.882812 243.210938 616.234375 241.601562 607.164062 L 219.761719 484.308594 L 228.980469 481.171875 L 286.6875 591.824219 C 290.949219 599.988281 301.023438 603.15625 309.191406 598.898438 C 317.359375 594.644531 320.53125 584.578125 316.273438 576.410156 L 254.4375 457.851562 L 228.601562 382.003906 L 280.601562 278.496094 C 283.277344 273.171875 281.132812 266.6875 275.796875 264.011719 C 270.472656 261.339844 263.988281 263.488281 261.3125 268.8125 L 211.664062 367.632812 L 164.152344 383.800781 L 64.484375 335.785156 C 59.113281 333.199219 52.664062 335.449219 50.074219 340.816406 C 47.488281 346.183594 49.742188 352.628906 55.113281 355.21875 Z M 55.113281 355.21875 " fill-opacity="1" fill-rule="nonzero"/><path fill="rgb(98.81897%, 81.17981%, 84.309387%)" d="M 204.386719 329.941406 C 204.707031 330.882812 204.980469 331.835938 205.207031 332.804688 C 205.433594 333.773438 205.609375 334.75 205.742188 335.734375 C 205.871094 336.71875 205.953125 337.707031 205.988281 338.699219 C 206.019531 339.691406 206.007812 340.6875 205.941406 341.675781 C 205.878906 342.667969 205.765625 343.65625 205.605469 344.636719 C 205.441406 345.617188 205.234375 346.585938 204.976562 347.546875 C 204.722656 348.503906 204.417969 349.449219 204.070312 350.382812 C 203.71875 351.3125 203.324219 352.222656 202.886719 353.113281 C 202.449219 354.003906 201.964844 354.875 201.441406 355.71875 C 200.917969 356.5625 200.355469 357.378906 199.75 358.167969 C 199.144531 358.957031 198.503906 359.714844 197.824219 360.4375 C 197.144531 361.164062 196.433594 361.855469 195.683594 362.511719 C 194.9375 363.167969 194.160156 363.785156 193.355469 364.363281 C 192.546875 364.945312 191.710938 365.484375 190.851562 365.980469 C 189.992188 366.476562 189.109375 366.933594 188.203125 367.34375 C 187.296875 367.753906 186.375 368.121094 185.433594 368.441406 C 184.492188 368.761719 183.539062 369.035156 182.570312 369.261719 C 181.601562 369.488281 180.625 369.664062 179.640625 369.796875 C 178.652344 369.925781 177.664062 370.007812 176.671875 370.042969 C 175.675781 370.074219 174.683594 370.058594 173.691406 369.996094 C 172.699219 369.929688 171.714844 369.820312 170.730469 369.65625 C 169.75 369.496094 168.78125 369.289062 167.820312 369.03125 C 166.859375 368.777344 165.914062 368.472656 164.984375 368.125 C 164.050781 367.773438 163.140625 367.382812 162.25 366.941406 C 161.355469 366.503906 160.488281 366.023438 159.644531 365.5 C 158.796875 364.976562 157.980469 364.410156 157.191406 363.804688 C 156.402344 363.203125 155.644531 362.5625 154.917969 361.882812 C 154.191406 361.203125 153.5 360.492188 152.84375 359.746094 C 152.1875 359 151.570312 358.222656 150.992188 357.414062 C 150.410156 356.609375 149.871094 355.773438 149.375 354.914062 C 148.875 354.054688 148.421875 353.171875 148.011719 352.265625 C 147.597656 351.363281 147.234375 350.441406 146.914062 349.5 C 146.59375 348.558594 146.320312 347.605469 146.09375 346.636719 C 145.867188 345.667969 145.6875 344.695312 145.558594 343.707031 C 145.425781 342.722656 145.34375 341.734375 145.308594 340.742188 C 145.277344 339.75 145.292969 338.757812 145.355469 337.765625 C 145.421875 336.773438 145.53125 335.789062 145.695312 334.808594 C 145.855469 333.828125 146.0625 332.855469 146.320312 331.894531 C 146.578125 330.9375 146.878906 329.992188 147.230469 329.0625 C 147.578125 328.128906 147.972656 327.21875 148.410156 326.328125 C 148.851562 325.4375 149.332031 324.570312 149.855469 323.722656 C 150.378906 322.878906 150.945312 322.0625 151.550781 321.273438 C 152.152344 320.484375 152.796875 319.730469 153.472656 319.003906 C 154.152344 318.277344 154.867188 317.585938 155.613281 316.929688 C 156.359375 316.273438 157.136719 315.65625 157.945312 315.078125 C 158.753906 314.496094 159.585938 313.960938 160.445312 313.460938 C 161.308594 312.964844 162.191406 312.511719 163.09375 312.097656 C 164 311.6875 164.925781 311.324219 165.863281 311.003906 C 166.804688 310.683594 167.761719 310.410156 168.730469 310.183594 C 169.695312 309.957031 170.671875 309.777344 171.660156 309.644531 C 172.644531 309.515625 173.632812 309.433594 174.628906 309.398438 C 175.621094 309.367188 176.613281 309.382812 177.605469 309.445312 C 178.597656 309.511719 179.585938 309.621094 180.566406 309.785156 C 181.546875 309.945312 182.519531 310.152344 183.480469 310.410156 C 184.4375 310.664062 185.386719 310.96875 186.316406 311.316406 C 187.246094 311.667969 188.15625 312.0625 189.050781 312.5 C 189.941406 312.9375 190.8125 313.417969 191.65625 313.941406 C 192.5 314.46875 193.316406 315.03125 194.105469 315.636719 C 194.894531 316.238281 195.652344 316.878906 196.378906 317.558594 C 197.105469 318.238281 197.796875 318.949219 198.453125 319.695312 C 199.109375 320.441406 199.726562 321.21875 200.308594 322.027344 C 200.886719 322.835938 201.425781 323.667969 201.925781 324.527344 C 202.421875 325.386719 202.875 326.269531 203.289062 327.175781 C 203.699219 328.078125 204.066406 329.003906 204.386719 329.941406 Z M 204.386719 329.941406 " fill-opacity="1" fill-rule="nonzero"/><g clip-path="url(#clip-1)"><path fill="rgb(93.728638%, 67.059326%, 72.158813%)" d="M 1135.703125 434.867188 C 877.894531 434.867188 666.957031 603.617188 666.957031 809.867188 C 666.957031 1016.117188 877.894531 1184.867188 1135.703125 1184.867188 C 1393.515625 1184.867188 1604.453125 1016.117188 1604.453125 809.867188 C 1604.453125 603.617188 1393.515625 434.867188 1135.703125 434.867188 Z M 1135.703125 434.867188 " fill-opacity="1" fill-rule="nonzero"/></g><g clip-path="url(#clip-2)"><path fill="rgb(98.81897%, 81.17981%, 84.309387%)" d="M 1096.152344 343.488281 C 1097.027344 343.488281 1097.898438 343.53125 1098.765625 343.617188 C 1099.632812 343.703125 1100.496094 343.832031 1101.351562 344 C 1102.207031 344.171875 1103.054688 344.382812 1103.886719 344.632812 C 1104.722656 344.886719 1105.542969 345.179688 1106.351562 345.511719 C 1107.15625 345.847656 1107.945312 346.21875 1108.714844 346.628906 C 1109.484375 347.039062 1110.230469 347.484375 1110.957031 347.96875 C 1111.683594 348.453125 1112.382812 348.972656 1113.058594 349.523438 C 1113.730469 350.074219 1114.378906 350.660156 1114.996094 351.273438 C 1115.613281 351.890625 1116.195312 352.535156 1116.75 353.207031 C 1117.304688 353.878906 1117.824219 354.578125 1118.308594 355.300781 C 1118.792969 356.027344 1119.242188 356.773438 1119.652344 357.539062 C 1120.0625 358.308594 1120.4375 359.09375 1120.769531 359.898438 C 1121.105469 360.703125 1121.398438 361.519531 1121.652344 362.351562 C 1121.90625 363.1875 1122.117188 364.03125 1122.285156 364.882812 C 1122.457031 365.738281 1122.585938 366.597656 1122.671875 367.464844 C 1122.757812 368.328125 1122.796875 369.199219 1122.796875 370.066406 C 1122.796875 370.9375 1122.757812 371.808594 1122.671875 372.671875 C 1122.585938 373.539062 1122.457031 374.398438 1122.285156 375.253906 C 1122.117188 376.105469 1121.90625 376.949219 1121.652344 377.785156 C 1121.398438 378.617188 1121.105469 379.433594 1120.769531 380.238281 C 1120.4375 381.042969 1120.0625 381.828125 1119.652344 382.597656 C 1119.242188 383.363281 1118.792969 384.109375 1118.308594 384.835938 C 1117.824219 385.558594 1117.304688 386.257812 1116.75 386.929688 C 1116.195312 387.601562 1115.613281 388.246094 1114.996094 388.863281 C 1114.378906 389.476562 1113.730469 390.0625 1113.058594 390.613281 C 1112.382812 391.164062 1111.683594 391.683594 1110.957031 392.167969 C 1110.230469 392.652344 1109.484375 393.097656 1108.714844 393.507812 C 1107.945312 393.917969 1107.15625 394.289062 1106.351562 394.621094 C 1105.542969 394.957031 1104.722656 395.25 1103.886719 395.5 C 1103.054688 395.753906 1102.207031 395.964844 1101.351562 396.136719 C 1100.496094 396.304688 1099.632812 396.433594 1098.765625 396.519531 C 1097.898438 396.601562 1097.027344 396.644531 1096.152344 396.644531 C 1095.28125 396.644531 1094.410156 396.601562 1093.542969 396.519531 C 1092.675781 396.433594 1091.8125 396.304688 1090.957031 396.136719 C 1090.101562 395.964844 1089.253906 395.753906 1088.417969 395.5 C 1087.585938 395.25 1086.765625 394.957031 1085.957031 394.621094 C 1085.152344 394.289062 1084.363281 393.917969 1083.59375 393.507812 C 1082.824219 393.097656 1082.078125 392.652344 1081.351562 392.167969 C 1080.625 391.683594 1079.925781 391.164062 1079.25 390.613281 C 1078.574219 390.0625 1077.929688 389.476562 1077.3125 388.863281 C 1076.695312 388.246094 1076.109375 387.601562 1075.558594 386.929688 C 1075.003906 386.257812 1074.484375 385.558594 1074 384.835938 C 1073.515625 384.109375 1073.066406 383.363281 1072.65625 382.597656 C 1072.242188 381.828125 1071.871094 381.042969 1071.539062 380.238281 C 1071.203125 379.433594 1070.910156 378.617188 1070.65625 377.785156 C 1070.402344 376.949219 1070.191406 376.105469 1070.019531 375.253906 C 1069.851562 374.398438 1069.722656 373.539062 1069.636719 372.671875 C 1069.550781 371.808594 1069.507812 370.9375 1069.507812 370.066406 C 1069.507812 369.199219 1069.550781 368.328125 1069.636719 367.464844 C 1069.722656 366.597656 1069.851562 365.738281 1070.019531 364.882812 C 1070.191406 364.03125 1070.402344 363.1875 1070.65625 362.351562 C 1070.910156 361.519531 1071.203125 360.703125 1071.539062 359.898438 C 1071.871094 359.09375 1072.242188 358.308594 1072.65625 357.539062 C 1073.066406 356.773438 1073.515625 356.027344 1074 355.300781 C 1074.484375 354.578125 1075.003906 353.878906 1075.558594 353.207031 C 1076.109375 352.535156 1076.695312 351.890625 1077.3125 351.273438 C 1077.929688 350.660156 1078.574219 350.074219 1079.25 349.523438 C 1079.925781 348.972656 1080.625 348.453125 1081.351562 347.96875 C 1082.078125 347.484375 1082.824219 347.039062 1083.59375 346.628906 C 1084.363281 346.21875 1085.152344 345.847656 1085.957031 345.511719 C 1086.765625 345.179688 1087.585938 344.886719 1088.417969 344.632812 C 1089.253906 344.382812 1090.101562 344.171875 1090.957031 344 C 1091.8125 343.832031 1092.675781 343.703125 1093.542969 343.617188 C 1094.410156 343.53125 1095.28125 343.488281 1096.152344 343.488281 Z M 1092.5 414.351562 C 1094.46875 414.3125 1096.476562 414.46875 1098.488281 414.835938 C 1114.578125 417.75 1125.242188 433.136719 1122.3125 449.179688 L 1109.394531 520.054688 C 1107.105469 532.652344 1097.101562 541.890625 1085.121094 543.875 C 1083.914062 544.140625 1082.648438 544.300781 1081.351562 544.300781 L 1010.96875 544.300781 L 985.574219 615.234375 C 982.980469 622.484375 976.144531 627 968.851562 627 C 966.867188 627 964.84375 626.652344 962.871094 625.949219 C 953.636719 622.660156 948.824219 612.523438 952.128906 603.304688 L 981.734375 520.617188 C 984.261719 513.566406 990.949219 508.863281 998.457031 508.863281 L 1051.273438 508.863281 L 1064.0625 438.613281 C 1066.617188 424.578125 1078.722656 414.636719 1092.5 414.351562 Z M 1145.128906 420.191406 C 1145.570312 420.1875 1146 420.234375 1146.429688 420.328125 C 1146.859375 420.421875 1147.273438 420.5625 1147.667969 420.746094 C 1148.066406 420.933594 1148.4375 421.160156 1148.785156 421.425781 C 1149.132812 421.695312 1149.445312 421.996094 1149.722656 422.332031 C 1150.003906 422.671875 1150.242188 423.035156 1150.441406 423.425781 C 1150.640625 423.816406 1150.792969 424.222656 1150.898438 424.644531 C 1151.007812 425.070312 1151.066406 425.5 1151.078125 425.9375 C 1151.089844 426.375 1151.054688 426.808594 1150.96875 427.238281 L 1133.714844 521.96875 L 1133.691406 522.082031 C 1132.28125 528.390625 1130.441406 533.160156 1128.671875 536.976562 C 1124.632812 545.714844 1118.230469 553.082031 1110.367188 558.476562 L 1122.683594 619.929688 C 1122.769531 620.3125 1122.820312 620.703125 1122.828125 621.097656 C 1122.839844 621.492188 1122.808594 621.882812 1122.738281 622.273438 C 1122.671875 622.660156 1122.5625 623.039062 1122.417969 623.40625 C 1122.273438 623.773438 1122.09375 624.121094 1121.878906 624.453125 C 1121.664062 624.785156 1121.417969 625.089844 1121.140625 625.371094 C 1120.863281 625.652344 1120.5625 625.90625 1120.234375 626.125 C 1119.90625 626.347656 1119.558594 626.535156 1119.195312 626.6875 C 1118.832031 626.839844 1118.453125 626.953125 1118.066406 627.03125 C 1117.679688 627.109375 1117.285156 627.148438 1116.890625 627.144531 C 1116.496094 627.144531 1116.101562 627.105469 1115.714844 627.023438 C 1115.328125 626.945312 1114.953125 626.828125 1114.589844 626.671875 C 1114.226562 626.519531 1113.878906 626.328125 1113.554688 626.105469 C 1113.226562 625.882812 1112.925781 625.628906 1112.652344 625.34375 C 1112.378906 625.0625 1112.132812 624.753906 1111.921875 624.421875 C 1111.707031 624.089844 1111.527344 623.738281 1111.386719 623.371094 C 1111.242188 623.003906 1111.140625 622.625 1111.070312 622.234375 L 1099.4375 564.234375 C 1096.273438 565.457031 1093 566.476562 1089.574219 567.082031 C 1086.847656 567.636719 1084.089844 567.925781 1081.351562 567.925781 L 1038.839844 567.925781 L 1027.945312 622.234375 C 1027.878906 622.625 1027.773438 623.003906 1027.632812 623.371094 C 1027.488281 623.738281 1027.3125 624.089844 1027.097656 624.421875 C 1026.886719 624.753906 1026.640625 625.0625 1026.367188 625.34375 C 1026.089844 625.628906 1025.789062 625.882812 1025.464844 626.105469 C 1025.136719 626.328125 1024.792969 626.519531 1024.429688 626.671875 C 1024.066406 626.828125 1023.691406 626.945312 1023.300781 627.023438 C 1022.914062 627.105469 1022.523438 627.144531 1022.128906 627.144531 C 1021.730469 627.148438 1021.339844 627.109375 1020.953125 627.03125 C 1020.566406 626.953125 1020.1875 626.839844 1019.824219 626.6875 C 1019.457031 626.535156 1019.113281 626.347656 1018.785156 626.125 C 1018.457031 625.90625 1018.15625 625.652344 1017.878906 625.371094 C 1017.601562 625.089844 1017.355469 624.785156 1017.140625 624.453125 C 1016.925781 624.121094 1016.746094 623.773438 1016.601562 623.40625 C 1016.457031 623.039062 1016.347656 622.660156 1016.277344 622.273438 C 1016.210938 621.882812 1016.179688 621.492188 1016.191406 621.097656 C 1016.199219 620.703125 1016.246094 620.3125 1016.335938 619.929688 L 1026.765625 567.925781 L 1022.140625 567.925781 C 1021.75 567.929688 1021.359375 567.898438 1020.972656 567.828125 C 1020.589844 567.753906 1020.214844 567.648438 1019.847656 567.5 C 1019.484375 567.355469 1019.140625 567.175781 1018.8125 566.960938 C 1018.484375 566.746094 1018.179688 566.5 1017.898438 566.226562 C 1017.621094 565.953125 1017.371094 565.652344 1017.152344 565.328125 C 1016.929688 565.003906 1016.746094 564.660156 1016.59375 564.300781 C 1016.441406 563.9375 1016.328125 563.566406 1016.25 563.183594 C 1016.171875 562.796875 1016.136719 562.410156 1016.136719 562.019531 C 1016.136719 561.628906 1016.171875 561.242188 1016.25 560.855469 C 1016.328125 560.472656 1016.441406 560.101562 1016.59375 559.738281 C 1016.746094 559.378906 1016.929688 559.035156 1017.152344 558.710938 C 1017.371094 558.386719 1017.621094 558.089844 1017.898438 557.8125 C 1018.179688 557.539062 1018.484375 557.292969 1018.8125 557.078125 C 1019.140625 556.863281 1019.484375 556.683594 1019.847656 556.539062 C 1020.214844 556.394531 1020.589844 556.285156 1020.972656 556.210938 C 1021.359375 556.140625 1021.75 556.109375 1022.140625 556.113281 L 1033.058594 556.113281 C 1033.394531 556.058594 1033.734375 556.03125 1034.074219 556.03125 C 1034.363281 556.039062 1034.648438 556.066406 1034.929688 556.113281 L 1081.351562 556.113281 C 1083.277344 556.113281 1085.273438 555.910156 1087.273438 555.503906 L 1087.351562 555.480469 L 1087.433594 555.46875 C 1092.121094 554.648438 1096.507812 552.988281 1100.515625 550.738281 C 1100.847656 550.523438 1101.195312 550.339844 1101.566406 550.195312 C 1101.566406 550.195312 1101.578125 550.183594 1101.578125 550.183594 C 1108.695312 545.917969 1114.429688 539.589844 1117.929688 532.027344 L 1117.929688 532.015625 C 1119.441406 528.75 1120.898438 524.960938 1122.117188 519.535156 C 1122.117188 519.523438 1122.125 519.523438 1122.128906 519.511719 L 1139.324219 425.117188 C 1139.441406 424.429688 1139.671875 423.785156 1140.015625 423.179688 C 1140.359375 422.574219 1140.796875 422.046875 1141.328125 421.597656 C 1141.859375 421.148438 1142.449219 420.800781 1143.105469 420.558594 C 1143.757812 420.316406 1144.433594 420.195312 1145.128906 420.191406 Z M 1145.128906 420.191406 " fill-opacity="1" fill-rule="nonzero"/></g><g clip-path="url(#clip-3)"><path fill="rgb(98.81897%, 81.17981%, 84.309387%)" d="M 1303.867188 261.789062 C 1304.21875 261.835938 1304.5625 261.90625 1304.917969 261.9375 C 1306.6875 265.417969 1309.226562 268.445312 1312.292969 270.8125 C 1311.933594 272.183594 1311.730469 273.625 1311.730469 275.113281 C 1311.730469 277.933594 1312.4375 280.585938 1313.671875 282.921875 C 1298.554688 287.242188 1287.394531 296.078125 1287.394531 296.078125 C 1294.160156 284.871094 1299.566406 273.3125 1303.867188 261.789062 Z M 1244.839844 293.269531 C 1244.339844 277.25 1242.375 252.484375 1240.355469 229.945312 C 1241.425781 229.039062 1242.386719 228.003906 1243.183594 226.84375 C 1246.039062 229.976562 1250.132812 231.953125 1254.703125 231.953125 C 1260.253906 231.953125 1265.117188 229.042969 1267.882812 224.671875 C 1269.132812 224.996094 1270.441406 225.1875 1271.800781 225.1875 C 1275.144531 225.1875 1278.242188 224.121094 1280.785156 222.328125 C 1281.695312 223.160156 1282.675781 223.921875 1283.722656 224.597656 C 1282.085938 228.007812 1281.167969 231.832031 1281.167969 235.867188 C 1281.167969 243.167969 1284.171875 249.742188 1288.988281 254.492188 C 1268.996094 300.117188 1246.015625 330.972656 1244.839844 293.269531 Z M 1195.925781 298.191406 C 1188.027344 297.476562 1177.125 292.359375 1165.980469 285.761719 C 1166.253906 285.371094 1166.523438 284.980469 1166.777344 284.578125 C 1168.695312 285.074219 1170.707031 285.371094 1172.785156 285.371094 C 1181.820312 285.371094 1189.683594 280.34375 1193.742188 272.945312 C 1197.617188 268.699219 1199.996094 263.066406 1199.996094 256.867188 C 1199.996094 254.261719 1199.582031 251.753906 1198.804688 249.40625 C 1204.792969 247.535156 1209.855469 243.574219 1213.148438 238.371094 C 1215.246094 238.921875 1217.453125 239.242188 1219.730469 239.242188 C 1224.035156 239.242188 1228.09375 238.183594 1231.675781 236.34375 C 1220.679688 275.617188 1195.925781 298.191406 1195.925781 298.191406 Z M 1420.929688 248.441406 C 1425.179688 243.785156 1427.796875 237.609375 1427.796875 230.804688 C 1427.796875 219.296875 1420.371094 209.550781 1410.050781 206.03125 C 1410.078125 205.558594 1410.121094 205.085938 1410.121094 204.609375 C 1410.121094 190.144531 1398.394531 178.414062 1383.925781 178.414062 C 1382.476562 178.414062 1381.054688 178.539062 1379.667969 178.765625 C 1377.019531 173.496094 1372.375 169.398438 1366.722656 167.472656 C 1366.738281 167.0625 1366.78125 166.65625 1366.78125 166.238281 C 1366.78125 158.222656 1362.605469 151.195312 1356.316406 147.167969 C 1356.433594 146.980469 1356.554688 146.800781 1356.660156 146.609375 C 1359.089844 143.945312 1360.582031 140.414062 1360.582031 136.523438 C 1360.582031 129.945312 1356.335938 124.371094 1350.441406 122.363281 C 1350.449219 122.089844 1350.476562 121.824219 1350.476562 121.550781 C 1350.476562 113.28125 1343.773438 106.570312 1335.5 106.570312 C 1330.984375 106.570312 1326.945312 108.574219 1324.195312 111.734375 C 1323.015625 111.4375 1321.792969 111.265625 1320.519531 111.265625 C 1319.070312 111.265625 1317.671875 111.480469 1316.347656 111.867188 C 1313.632812 109.152344 1309.890625 107.472656 1305.75 107.472656 C 1300.101562 107.472656 1295.207031 110.605469 1292.65625 115.222656 C 1290.855469 117.1875 1289.570312 119.628906 1289.019531 122.347656 C 1285.757812 123.445312 1283.003906 125.632812 1281.183594 128.480469 C 1277.125 122.996094 1270.617188 119.417969 1263.265625 119.417969 C 1256.546875 119.417969 1250.53125 122.410156 1246.445312 127.113281 C 1244.6875 126.664062 1242.855469 126.40625 1240.964844 126.40625 C 1238.804688 126.40625 1236.722656 126.730469 1234.75 127.296875 C 1230.714844 123.265625 1225.136719 120.765625 1218.976562 120.765625 C 1210.5625 120.765625 1203.269531 125.425781 1199.480469 132.296875 C 1196.789062 135.226562 1194.886719 138.863281 1194.0625 142.910156 C 1188.75 144.703125 1184.335938 148.433594 1181.667969 153.261719 C 1178.945312 156.226562 1177.015625 159.925781 1176.207031 164.035156 C 1174.839844 164.207031 1173.507812 164.480469 1172.214844 164.855469 C 1167.472656 160.109375 1160.921875 157.175781 1153.683594 157.175781 C 1143.808594 157.175781 1135.242188 162.652344 1130.785156 170.726562 C 1127.628906 174.160156 1125.390625 178.4375 1124.417969 183.1875 C 1118.183594 185.292969 1112.996094 189.671875 1109.863281 195.351562 C 1105.679688 199.90625 1103.089844 205.929688 1102.96875 212.570312 C 1098.167969 214.6875 1094.203125 218.332031 1091.6875 222.894531 C 1088.808594 226.027344 1086.761719 229.921875 1085.878906 234.257812 C 1080.191406 236.179688 1075.464844 240.171875 1072.605469 245.351562 C 1068.699219 249.601562 1066.304688 255.261719 1066.304688 261.484375 C 1066.304688 273.921875 1075.808594 284.132812 1087.957031 285.253906 C 1091.902344 293.003906 1099.9375 298.320312 1109.230469 298.320312 C 1117.421875 298.320312 1124.644531 294.1875 1128.949219 287.902344 C 1133.316406 292.703125 1139.59375 295.730469 1146.59375 295.730469 C 1147.183594 295.730469 1147.765625 295.703125 1148.34375 295.660156 C 1187.855469 342.984375 1213.988281 334.667969 1221.386719 356.035156 C 1227.632812 374.070312 1189.894531 579.859375 1189.894531 579.859375 L 1287.394531 579.859375 C 1287.394531 579.859375 1222.222656 395.351562 1258.566406 350.960938 C 1284.433594 319.367188 1312.164062 304.546875 1331.8125 297.601562 C 1334.613281 299.710938 1338.089844 300.964844 1341.867188 300.964844 C 1347.625 300.964844 1352.691406 298.070312 1355.714844 293.65625 C 1358.78125 297.019531 1363.191406 299.152344 1368.101562 299.152344 C 1374.070312 299.152344 1379.300781 296.019531 1382.273438 291.320312 C 1383.621094 291.671875 1385.027344 291.878906 1386.488281 291.878906 C 1392.828125 291.878906 1398.351562 288.351562 1401.195312 283.15625 C 1403.917969 280.175781 1405.59375 276.21875 1405.59375 271.867188 C 1405.59375 268.039062 1404.296875 264.515625 1402.132812 261.695312 C 1410.246094 260.390625 1417.121094 255.386719 1420.929688 248.441406 " fill-opacity="1" fill-rule="nonzero"/></g></svg>